<svg width="32" height="41" viewBox="0 0 32 41" fill="none" xmlns="http://www.w3.org/2000/svg">
<path fill-rule="evenodd" clip-rule="evenodd" d="M15.9596 40.3011C12.6049 40.3409 9.26034 39.9272 6.01656 39.0711C4.55636 38.7176 3.16488 38.1245 1.89858 37.3161C1.3959 36.9566 0.935631 36.5413 0.526573 36.0781C0.142357 35.6302 -0.04673 35.0472 0.00154877 34.4591C0.0999374 29.2213 3.75527 24.7249 8.86257 23.5591C9.27145 23.429 9.71792 23.5035 10.0625 23.7591C11.6718 24.8603 13.5758 25.4503 15.5257 25.4521C17.1654 25.5553 18.8066 25.2756 20.3196 24.6351C20.9826 24.3261 21.5976 23.9141 22.2396 23.5591C22.3484 23.4924 22.4752 23.461 22.6026 23.4692C27.1146 24.2728 30.7007 27.7109 31.6936 32.1851C31.8255 32.9083 31.9183 33.638 31.9716 34.3712C32.0326 35.1483 31.7349 35.9108 31.1636 36.4412C30.3105 37.2643 29.2952 37.9008 28.1826 38.3101C26.357 39.0377 24.4507 39.5436 22.5046 39.8171C20.3399 40.157 18.1508 40.3189 15.9596 40.3011L15.9596 40.3011Z" fill="#E9AE24"/>
<path fill-rule="evenodd" clip-rule="evenodd" d="M5.28176 6.21107C5.26778 6.47107 5.25674 6.64307 5.51473 6.77107C5.70449 6.86935 5.82851 7.06036 5.84103 7.27374C5.85354 7.48711 5.75271 7.69128 5.57571 7.81108C5.45016 7.88055 5.38174 8.02141 5.40469 8.16307C5.55666 10.1821 5.68472 12.2041 5.86068 14.2211C5.87289 15.0935 5.69509 15.9582 5.33968 16.755C5.31869 16.8161 5.23971 16.8551 5.18771 16.9071C5.1437 16.8601 5.07668 16.8211 5.0577 16.7661C4.69051 15.9226 4.51723 15.0074 4.55074 14.088C4.73171 12.3251 4.81271 10.5511 4.93569 8.78207C4.9457 8.63707 4.96572 8.49307 4.97768 8.34807C5.03872 8.12491 4.95412 7.88739 4.76577 7.75307C4.60928 7.62285 4.53091 7.42111 4.55856 7.21936C4.5862 7.01761 4.7159 6.84436 4.90176 6.76106C5.16268 6.64508 5.11971 6.43607 5.13168 6.26108C5.13168 6.18907 4.96566 6.08807 4.85867 6.03207C4.61965 5.90607 4.35867 5.82208 4.12868 5.68008C3.74667 5.44008 3.74368 5.08008 4.13467 4.85507C4.49136 4.66281 4.8586 4.49086 5.23464 4.34007C8.33065 2.99741 11.4276 1.65674 14.5257 0.318085C15.4466 -0.100662 16.5031 -0.102844 17.4257 0.312073C20.7984 1.77008 24.1703 3.22874 27.5416 4.68808C27.8096 4.80408 28.1216 4.92609 28.1177 5.27008C28.1138 5.61408 27.8037 5.72908 27.5347 5.84607C26.4527 6.31607 25.3717 6.78708 24.2857 7.24608C24.1167 7.29283 24.0075 7.45612 24.0286 7.63008C24.0416 8.58008 24.0097 9.53009 24.0467 10.4801C24.0983 10.8617 24.1842 11.2379 24.3036 11.6041C24.8667 14.1436 24.3767 16.8029 22.9456 18.9751C21.9332 20.7535 20.3407 22.1303 18.4346 22.8751C16.0449 23.8105 13.3333 23.3383 11.4006 21.6501C9.24392 19.9619 7.84206 17.4896 7.50057 14.7721C7.31673 13.4809 7.43697 12.1646 7.85159 10.9281C7.90487 10.7636 7.93319 10.592 7.93557 10.4191C7.94357 9.48808 7.93557 8.55708 7.94357 7.62608C7.96938 7.46231 7.86965 7.30481 7.71059 7.25809C6.91573 6.92609 6.12173 6.57307 5.28176 6.21107Z" fill="#E9AE24"/>
</svg>
