<svg width="38" height="36" viewBox="0 0 38 36" fill="none" xmlns="http://www.w3.org/2000/svg">
<path fill-rule="evenodd" clip-rule="evenodd" d="M34.279 35.407H3.53198C1.75879 35.0376 0.373291 33.6521 0.00390625 31.8791L0.00396729 3.82012C1.35498 0.413013 3.42499 0.245044 7.31097 0.610034C7.31097 1.49199 7.31097 2.38311 7.31097 3.27507C7.27277 4.12737 7.6167 4.95232 8.24896 5.52507C9.01883 6.25786 10.1415 6.48235 11.134 6.1021C12.1649 5.80913 12.9083 4.91069 13.003 3.84307C13.103 2.76909 13.024 1.679 13.024 0.543018H24.724C24.724 1.45806 24.724 2.31804 24.724 3.17803C24.6705 4.17632 25.1282 5.13335 25.939 5.71807C26.8071 6.38286 27.9855 6.47344 28.945 5.94902C29.9293 5.46892 30.5378 4.45342 30.497 3.35906C30.519 2.42314 30.497 1.48516 30.497 0.559131C31.797 0.559131 32.938 0.488086 34.071 0.575122C36.083 0.73003 37.119 2.09014 37.804 3.81609V31.8821C37.4338 33.6531 36.05 35.0369 34.279 35.407H34.279ZM34.8971 9.29107H2.91309V10.2701C2.91309 17.0187 2.91309 23.7674 2.91309 30.516C2.91309 32.063 3.35309 32.4971 4.91309 32.4971H32.8871C34.4521 32.4971 34.8871 32.063 34.8871 30.516C34.8871 23.7674 34.8871 17.0187 34.8871 10.2701L34.8971 9.29107Z" fill="#345FB4"/>
</svg>
