<svg width="34" height="40" viewBox="0 0 34 40" fill="none" xmlns="http://www.w3.org/2000/svg">
<path fill-rule="evenodd" clip-rule="evenodd" d="M0.90332 37.256V3.05595C0.932007 3.007 0.956787 2.95585 0.977295 2.90293C1.24878 1.64561 2.40906 0.783304 3.69128 0.885965H30.8563C31.1276 0.878641 31.3989 0.88566 31.6693 0.906961C32.5437 0.979166 33.3142 1.50981 33.6934 2.30094C33.8054 2.54643 33.9032 2.7982 33.9863 3.05497V29.881C33.8553 29.9909 33.7203 30.097 33.5944 30.212C30.3051 33.1919 27.014 36.1706 23.7213 39.148C23.5673 39.284 23.3716 39.3639 23.1664 39.375C16.599 39.3863 10.0323 39.3887 3.46631 39.3819C2.37573 39.3766 1.41003 38.6761 1.06641 37.641C1.01428 37.514 0.955322 37.386 0.90332 37.256ZM22.3448 35.156H21.9617C16.5197 35.156 11.0777 35.156 5.63567 35.156C4.88372 35.156 4.79265 35.076 4.79265 34.329C4.79265 24.873 4.79265 15.417 4.79265 5.96104C4.79265 5.20402 4.87468 5.12101 5.6187 5.12101H21.8007C21.7878 5.18302 21.7897 5.19999 21.7817 5.20701C21.7197 5.26603 21.6557 5.322 21.5937 5.38102C19.6519 7.05833 18.6763 9.59483 18.9937 12.141C19.0412 13.3594 19.6342 14.4917 20.6084 15.2248C21.5827 15.9578 22.835 16.2138 24.0187 15.922C26.8398 15.402 28.5907 13.508 29.8337 11.061C29.8916 10.947 29.7437 10.728 29.6917 10.561C29.5337 10.638 29.3136 10.674 29.2267 10.801C28.9057 11.271 28.6687 11.801 28.3267 12.254C27.3666 13.6777 25.9319 14.714 24.2786 15.178C23.2577 15.5389 22.1268 15.3992 21.2244 14.8008C20.3221 14.2024 19.7533 13.2148 19.6888 12.134C19.3707 9.76237 20.2819 7.39195 22.1067 5.84403C22.2675 5.65464 22.4042 5.44602 22.5137 5.223L22.4137 5.12303H29.2658C30.0148 5.12303 30.0948 5.205 30.0948 5.95799C30.0948 13.4427 30.0921 20.9273 30.0867 28.412V29.024H32.7947C32.8028 28.86 32.8157 28.724 32.8157 28.582C32.819 20.2834 32.8217 11.9834 32.8238 3.68199C32.8882 3.22544 32.7337 2.76524 32.4069 2.43998C32.0801 2.11472 31.6191 1.96244 31.1629 2.02903H3.73772C3.63774 2.02903 3.53777 2.02903 3.43767 2.02903C2.70513 2.05662 2.11345 2.63621 2.07073 3.36802C2.05474 3.58103 2.06267 3.796 2.06267 4.01103C2.06267 14.667 2.06267 25.3227 2.06267 35.978C2.06267 36.221 2.06267 36.464 2.06267 36.706C2.03081 37.1274 2.18682 37.5412 2.48882 37.8367C2.79094 38.1322 3.20806 38.2791 3.62871 38.238C9.71331 38.238 15.7984 38.238 21.8837 38.238C22.0337 38.238 22.1838 38.222 22.3427 38.213L22.3448 35.156ZM23.5361 37.527L31.8362 30.227H23.5361V37.527ZM28.2429 17.1379H6.75195V18.1379H28.2429V17.1379ZM28.2429 20.907H6.75391V21.907H28.2429V20.907ZM6.74219 25.685H28.2272V24.685H6.74219V25.685ZM6.73535 29.537H28.2263V28.537H6.73535V29.537ZM25.7352 9.84397C25.9287 9.74906 26.1078 9.62718 26.2672 9.48197C26.3667 9.34739 26.4011 9.17552 26.3612 9.01298C26.3312 8.93192 26.0742 8.89396 25.9282 8.91294C25.7905 8.95158 25.6647 9.02415 25.5623 9.12394C25.3342 9.30198 25.1703 9.25797 24.9923 9.03593C24.5653 8.50096 24.1063 7.98997 23.6923 7.44895C23.5852 7.31095 23.5923 7.08695 23.5193 6.91697C23.4373 6.75974 23.344 6.60868 23.2403 6.46494C23.0977 6.57017 22.9639 6.68687 22.8404 6.81394C22.7842 6.87992 22.8023 7.00596 22.7813 7.10392C22.2982 9.34794 21.8092 11.591 21.3443 13.8379C21.3162 14.0294 21.382 14.2226 21.5213 14.357C21.7873 14.498 21.9292 14.271 21.9962 14.0299C22.1962 13.315 22.3853 12.5979 22.5852 11.884C22.6182 11.7669 22.6552 11.607 22.7422 11.555C23.5213 11.089 24.3112 10.6419 25.1043 10.186C25.5962 10.7329 26.0482 11.229 26.4912 11.732C26.6613 11.925 26.8352 12.126 27.0912 11.914C27.3472 11.7019 27.1862 11.479 27.0213 11.2909C26.603 10.8139 26.1872 10.347 25.7331 9.84098L25.7352 9.84397ZM12.2611 13.3502H7.80408C7.54773 13.325 7.29065 13.3349 7.03503 13.3796C6.92908 13.409 6.84302 13.6772 6.74805 13.837C6.83813 14.0046 6.93372 14.1623 7.03394 14.3092C7.07202 14.3606 7.14502 14.3239 7.20203 14.3239H17.3151C17.3861 14.3239 17.4801 14.3624 17.524 14.2963C17.6222 14.1763 17.696 13.9999 17.734 13.7948C17.744 13.6754 17.6171 13.4567 17.527 13.3888C17.416 13.3397 17.3011 13.3285 17.188 13.3557L12.2611 13.3502ZM12.2371 32.3691H7.48206C7.34033 32.3407 7.19714 32.3505 7.05701 32.3981C6.9425 32.5057 6.83875 32.6474 6.75 32.8173C6.84741 32.9996 6.95203 33.1689 7.06299 33.3235C7.11194 33.3833 7.20203 33.3343 7.27295 33.3343H17.2119C17.3118 33.3664 17.4142 33.3577 17.512 33.309C17.6119 33.2127 17.7379 33.0077 17.736 32.8535C17.734 32.6993 17.606 32.4779 17.507 32.4053C17.3818 32.3535 17.2524 32.3424 17.1251 32.3726L12.2371 32.3691ZM28.4597 7.53105C28.4065 7.31431 28.3265 7.10502 28.2217 6.908C28.1217 6.77104 27.9216 6.60801 27.7856 6.62303C27.5306 6.66001 27.5096 6.89604 27.5757 7.13304C27.8007 7.94303 27.7977 7.94401 27.0936 8.37003C27.0566 8.39201 27.0006 8.40598 26.9877 8.43803C26.9207 8.60203 26.8646 8.77104 26.8057 8.93803C26.9796 8.97001 27.1757 9.06699 27.3247 9.01902C27.579 8.9105 27.8215 8.77647 28.0487 8.619C28.1396 8.91905 28.2267 9.19199 28.3018 9.46501C28.3678 9.705 28.5138 9.88499 28.7517 9.76499C28.8901 9.65013 28.9647 9.47544 28.9517 9.296C28.8832 8.93333 28.792 8.5753 28.6787 8.22404C28.9296 8.10038 29.1694 7.95554 29.3958 7.79099C29.4957 7.70603 29.5808 7.43803 29.5277 7.37504C29.4097 7.25657 29.244 7.1984 29.0778 7.21702C28.858 7.29252 28.6494 7.39707 28.4575 7.52799L28.4597 7.53105Z" fill="#345FB4"/>
</svg>
