<svg width="35" height="36" viewBox="0 0 35 36" fill="none" xmlns="http://www.w3.org/2000/svg">
<path fill-rule="evenodd" clip-rule="evenodd" d="M2.0673 3.348H7.5003C7.5003 3.53001 7.5003 3.69297 7.5003 3.856C7.5003 5.49998 7.4923 7.14396 7.5003 8.78697C7.48449 10.3525 8.69238 11.6585 10.2543 11.765C11.7427 11.862 13.0755 10.8483 13.3793 9.38798C13.65 8.14738 13.052 6.87986 11.9223 6.29997C11.9223 7.13096 11.9313 7.93699 11.9223 8.74296C11.9454 9.44725 11.4576 10.0656 10.7673 10.207C10.3473 10.3058 9.90519 10.2082 9.56574 9.94187C9.2263 9.67558 9.02633 9.26939 9.0223 8.83799C8.99697 6.47264 8.99697 4.10594 9.0223 1.73796C9.05534 0.960185 9.70606 0.352641 10.4843 0.372966C11.257 0.385722 11.8847 1.00071 11.9133 1.77293C11.9333 2.26097 11.9133 2.75096 11.9133 3.29197H22.2133C22.2233 3.50193 22.2383 3.66294 22.2383 3.82493C22.2383 5.46897 22.2383 7.11296 22.2383 8.75596C22.2192 10.283 23.3621 11.5753 24.88 11.743C26.3979 11.9108 27.7954 10.8993 28.1103 9.40495C28.3887 8.17076 27.8181 6.9011 26.7103 6.28996C26.6887 6.40531 26.674 6.52183 26.6663 6.63896C26.6663 7.34593 26.6763 8.05296 26.6603 8.75895C26.6896 9.29508 26.4206 9.80363 25.9609 10.0812C25.5012 10.3587 24.926 10.3598 24.4651 10.0843C24.0043 9.80864 23.7332 9.30119 23.7603 8.76493C23.749 6.46031 23.749 4.15599 23.7603 1.85197C23.7387 1.32121 24.0088 0.821025 24.4644 0.548076C24.9201 0.275065 25.4886 0.272929 25.9463 0.542399C26.404 0.811931 26.6779 1.31004 26.6603 1.84092C26.6723 2.31297 26.6603 2.78495 26.6603 3.30992H33.5933C33.6193 3.64793 33.6503 3.93492 33.6613 4.22294C33.888 9.90159 34.1136 15.5799 34.3383 21.2579C34.4716 24.6033 34.6123 27.9486 34.7603 31.2939C34.8721 32.4606 34.4727 33.6183 33.6654 34.4678C32.858 35.3174 31.7221 35.7752 30.5513 35.7229C22.102 35.7303 13.6523 35.7303 5.20229 35.7229C3.99155 35.8037 2.80813 35.3389 1.97595 34.4558C1.14376 33.5727 0.749932 32.3638 0.902291 31.16C1.04429 28.199 1.14629 25.2359 1.26629 22.2739C1.48229 16.9179 1.69895 11.5622 1.91628 6.20695C1.9683 5.26597 2.02029 4.31797 2.0673 3.348ZM3.67689 14.371C3.6609 14.53 3.6439 14.635 3.64088 14.74C3.4539 20.297 3.2899 25.854 3.06689 31.409C3.02102 31.9845 3.2252 32.5519 3.62724 32.9662C4.02929 33.3805 4.59028 33.6015 5.16688 33.573C13.6159 33.544 22.0669 33.558 30.5129 33.556C31.0981 33.6329 31.6851 33.4281 32.0955 33.0039C32.5059 32.5798 32.6911 31.9863 32.5949 31.404C32.3776 26.0793 32.1545 20.7547 31.9259 15.43C31.9109 15.082 31.8769 14.736 31.8509 14.371L3.67689 14.371Z" fill="#345FB4"/>
<path fill-rule="evenodd" clip-rule="evenodd" d="M13.2076 21.311C13.8506 21.311 14.4946 21.33 15.1366 21.297C15.3126 21.2646 15.463 21.1512 15.5426 20.991C15.9296 19.943 16.2836 18.884 16.6476 17.828C16.6926 17.697 16.7316 17.565 16.7796 17.435C16.9027 16.9392 17.3508 16.5933 17.8616 16.6C18.3569 16.6046 18.7856 16.9454 18.9016 17.427C19.3076 18.583 19.7176 19.738 20.0916 20.905C20.1429 21.1815 20.4064 21.3657 20.6836 21.319C21.8836 21.319 23.0766 21.358 24.2736 21.381C24.7969 21.3263 25.2889 21.639 25.4616 22.136C25.623 22.64 25.4046 23.1876 24.9406 23.442C23.9866 24.165 23.0406 24.893 22.0676 25.596C21.8186 25.7289 21.7182 26.0342 21.8396 26.289C22.2066 27.427 22.5506 28.572 22.8986 29.716C23.1317 30.2017 22.9821 30.7845 22.544 31.0979C22.1059 31.4113 21.5059 31.3645 21.1216 30.987C20.1286 30.287 19.1316 29.6 18.1486 28.887C17.9789 28.7246 17.7114 28.7246 17.5416 28.887C16.5576 29.595 15.5596 30.287 14.5666 30.979C14.1832 31.3561 13.5843 31.4034 13.1464 31.0912C12.7085 30.779 12.5581 30.1974 12.7896 29.712C13.1376 28.568 13.4816 27.423 13.8486 26.285C13.9711 26.0305 13.8715 25.7247 13.6227 25.5911C12.6297 24.87 11.6546 24.123 10.6756 23.382C10.2623 23.1145 10.0802 22.6027 10.2315 22.1342C10.3828 21.6656 10.8299 21.3572 11.3216 21.382C11.9506 21.3719 12.5796 21.382 13.2086 21.382L13.2076 21.311Z" fill="#345FB4"/>
</svg>
