<svg width="452" height="280" viewBox="0 0 452 280" fill="none" xmlns="http://www.w3.org/2000/svg">
<circle cx="236" cy="142" r="68" fill="black" fill-opacity="0.121569"/>
<path fill-rule="evenodd" clip-rule="evenodd" d="M173.999 142C173.999 124.879 180.052 110.266 192.158 98.1594C204.265 86.0531 218.878 80 235.999 80C253.12 80 267.733 86.0531 279.84 98.1594C291.946 110.266 297.999 124.879 297.999 142C297.999 159.121 291.946 173.734 279.84 185.841C267.733 197.947 253.12 204 235.999 204C218.878 204 204.265 197.947 192.158 185.841C180.052 173.734 173.999 159.121 173.999 142Z" fill="url(#paint0_linear_1_2023)"/>
<circle cx="234.999" cy="141" r="54" fill="#C2D7F2"/>
<circle cx="187.499" cy="175.5" r="18.5" fill="url(#paint1_linear_1_2023)"/>
<path fill-rule="evenodd" clip-rule="evenodd" d="M187.747 164.486L191.401 171.603L199.335 172.626L193.697 178.301L195.175 186.164L188.036 182.555L181.016 186.39L182.241 178.485L176.425 172.992L184.322 171.715L187.747 164.486Z" fill="white"/>
<path fill-rule="evenodd" clip-rule="evenodd" d="M187.748 164.486L187.922 175.381L191.405 171.602L187.748 164.486Z" fill="#686868" fill-opacity="0.431373"/>
<path fill-rule="evenodd" clip-rule="evenodd" d="M199.336 172.626L187.922 175.381L193.696 178.301L199.336 172.626Z" fill="#686868" fill-opacity="0.431373"/>
<path fill-rule="evenodd" clip-rule="evenodd" d="M187.922 175.381L184.322 171.715L176.425 172.992L187.922 175.381Z" fill="#686868" fill-opacity="0.431373"/>
<path fill-rule="evenodd" clip-rule="evenodd" d="M181.016 186.39L187.922 175.381L182.243 178.487L181.016 186.39Z" fill="#686868" fill-opacity="0.431373"/>
<path fill-rule="evenodd" clip-rule="evenodd" d="M195.176 186.162L187.922 175.381L188.036 182.554L195.176 186.162Z" fill="#686868" fill-opacity="0.431373"/>
<mask id="mask0_1_2023" style="mask-type:luminance" maskUnits="userSpaceOnUse" x="0" y="0" width="452" height="260">
<rect width="451.186" height="259.256" fill="white"/>
</mask>
<g mask="url(#mask0_1_2023)">
<g opacity="0.2">
<mask id="mask1_1_2023" style="mask-type:luminance" maskUnits="userSpaceOnUse" x="39" y="7" width="380" height="255">
<rect x="39.0879" y="7.75806" width="379.055" height="253.904" fill="white"/>
</mask>
<g mask="url(#mask1_1_2023)">
<path fill-rule="evenodd" clip-rule="evenodd" d="M41.331 261.662H409.899C413.342 253.543 423.204 223.484 403.599 194.255C403.599 194.255 394.799 176.555 392.658 163.455C390.913 152.774 390.539 139.963 391.547 125.378C392.308 114.37 393.355 103.712 394.291 95.216C408.417 89.845 418.145 78.574 418.145 65.537C418.145 47.296 399.103 32.509 375.613 32.509C372.353 32.5065 369.098 32.797 365.89 33.377C349.078 22.305 325.576 13.268 295.928 9.60001C284.157 8.0601 272.278 7.49818 260.414 7.92003C246.757 8.52001 234.779 10.785 224.814 14.65C219.263 16.7462 214.098 19.7489 209.53 23.536C195.202 17.1 177.845 12.102 157.63 9.60101C145.858 8.06105 133.979 7.49911 122.115 7.921C108.458 8.52101 96.48 10.786 86.515 14.651C65.599 22.761 58.029 38.411 55.361 50.111C53.4125 59.0588 53.342 68.3136 55.154 77.29C56.603 84.625 61.654 91.298 64.708 94.676C77.402 117.414 109.996 117.249 86.282 147C54.499 186.868 31.659 237.541 41.331 261.662ZM389.012 103.685C388.353 110.27 387.705 117.56 387.188 125.01C386.152 139.945 386.539 153.11 388.337 164.132C389.251 170.137 390.849 176.019 393.097 181.662C392.997 181.562 392.897 181.462 392.797 181.362C367.227 156.383 379.507 127.931 389.017 103.687M130.094 17.088C130.094 17.088 65.359 19.668 60.322 69.713C60.1787 71.135 60.088 72.5083 60.05 73.833C58.1776 66.383 58.0295 58.6039 59.617 51.088C62.048 40.425 68.961 26.157 88.086 18.741C109.711 10.356 137.506 11.504 157.014 13.941C163.163 14.7217 169.262 15.8627 175.277 17.3581C162.4 16.592 147.454 16.468 130.093 17.085" fill="#93E3F1"/>
</g>
</g>
</g>
<g opacity="0.5">
<mask id="mask2_1_2023" style="mask-type:luminance" maskUnits="userSpaceOnUse" x="136" y="199" width="46" height="15">
<rect x="136.766" y="199.134" width="45.007" height="14.636" fill="white"/>
</mask>
<g mask="url(#mask2_1_2023)">
<path fill-rule="evenodd" clip-rule="evenodd" d="M136.766 213.77C137.223 211.114 139.481 209.143 142.175 209.048C142.649 209.049 143.12 209.117 143.575 209.248C144.777 206.193 147.693 204.156 150.975 204.079C151.802 204.077 152.624 204.212 153.407 204.479C155.085 201.25 158.395 199.199 162.033 199.134C166.43 199.257 170.25 202.193 171.501 206.41C172.51 205.787 173.673 205.456 174.86 205.454C178.676 205.454 181.77 208.848 181.77 213.035C181.77 213.283 181.759 213.528 181.737 213.771L136.766 213.77Z" fill="white"/>
</g>
</g>
<g opacity="0.5">
<mask id="mask3_1_2023" style="mask-type:luminance" maskUnits="userSpaceOnUse" x="337" y="93" width="46" height="15">
<rect x="337.87" y="93.2109" width="45.008" height="14.637" fill="white"/>
</mask>
<g mask="url(#mask3_1_2023)">
<path fill-rule="evenodd" clip-rule="evenodd" d="M337.867 107.848C338.324 105.192 340.582 103.22 343.276 103.126C343.749 103.127 344.221 103.194 344.676 103.326C345.878 100.271 348.794 98.2339 352.076 98.1568C352.903 98.1552 353.724 98.2904 354.507 98.5568C356.185 95.3282 359.495 93.277 363.133 93.2119C367.53 93.3353 371.35 96.2708 372.601 100.488C373.61 99.8644 374.773 99.5334 375.96 99.5319C379.776 99.5319 382.87 102.926 382.87 107.113C382.87 107.361 382.858 107.606 382.837 107.849L337.867 107.848Z" fill="white"/>
</g>
</g>
<g opacity="0.5">
<mask id="mask4_1_2023" style="mask-type:luminance" maskUnits="userSpaceOnUse" x="259" y="175" width="46" height="15">
<rect x="259.471" y="175.254" width="45.006" height="14.636" fill="white"/>
</mask>
<g mask="url(#mask4_1_2023)">
<path fill-rule="evenodd" clip-rule="evenodd" d="M259.47 189.89C259.927 187.234 262.185 185.263 264.879 185.168C265.353 185.17 265.824 185.237 266.279 185.368C267.481 182.313 270.397 180.276 273.679 180.199C274.506 180.197 275.327 180.333 276.11 180.599C277.788 177.37 281.098 175.319 284.736 175.254C289.133 175.377 292.953 178.313 294.204 182.53C295.214 181.906 296.376 181.575 297.563 181.574C301.379 181.574 304.473 184.968 304.473 189.155C304.473 189.403 304.462 189.648 304.44 189.89H259.47Z" fill="white"/>
</g>
</g>
<g opacity="0.5">
<mask id="mask5_1_2023" style="mask-type:luminance" maskUnits="userSpaceOnUse" x="72" y="61" width="23" height="8">
<rect x="72.113" y="61.394" width="22.485" height="7.311" fill="white"/>
</mask>
<g mask="url(#mask5_1_2023)">
<path fill-rule="evenodd" clip-rule="evenodd" d="M72.113 68.706C72.3413 67.3798 73.4682 66.3952 74.813 66.347C75.0499 66.3476 75.2855 66.3813 75.5131 66.447C76.1139 64.9198 77.5723 63.9021 79.2131 63.865C79.6263 63.8642 80.0368 63.9318 80.428 64.065C81.2664 62.4521 82.9205 61.4274 84.7381 61.395C86.9349 61.4565 88.8432 62.9231 89.4681 65.03C89.9723 64.7184 90.5533 64.5529 91.1461 64.552C93.1419 64.6481 94.685 66.3387 94.599 68.335C94.599 68.459 94.593 68.581 94.582 68.702L72.113 68.706Z" fill="white"/>
</g>
</g>
<g opacity="0.5">
<mask id="mask6_1_2023" style="mask-type:luminance" maskUnits="userSpaceOnUse" x="73" y="32" width="56" height="19">
<rect x="73.7668" y="32.454" width="54.916" height="17.858" fill="white"/>
</mask>
<g mask="url(#mask6_1_2023)">
<path fill-rule="evenodd" clip-rule="evenodd" d="M128.683 50.312C128.125 47.0711 125.37 44.6662 122.083 44.551C121.505 44.5507 120.929 44.6311 120.373 44.79C118.906 41.0616 115.347 38.576 111.342 38.483C110.332 38.4826 109.33 38.6492 108.375 38.976C106.328 35.0363 102.288 32.5333 97.8489 32.454C92.5359 32.454 88.0109 36.154 86.2969 41.332C85.0647 40.5708 83.6453 40.1668 82.1969 40.165C77.5399 40.165 73.7649 44.306 73.7649 49.415C73.7649 49.715 73.7789 50.015 73.8049 50.315L128.683 50.312Z" fill="white"/>
</g>
</g>
<g opacity="0.5">
<mask id="mask7_1_2023" style="mask-type:luminance" maskUnits="userSpaceOnUse" x="241" y="39" width="82" height="27">
<rect x="241.597" y="39.527" width="80.757" height="26.263" fill="white"/>
</mask>
<g mask="url(#mask7_1_2023)">
<path fill-rule="evenodd" clip-rule="evenodd" d="M322.354 65.7891C321.338 60.9371 317.38 57.3161 312.648 57.3161C311.798 57.3158 310.951 57.4343 310.134 57.6681C307.977 52.1852 302.743 48.5299 296.853 48.3931C295.369 48.3924 293.894 48.6374 292.49 49.118C289.48 43.3241 283.539 39.6432 277.011 39.5271C269.198 39.5271 262.544 44.9671 260.023 52.5821C258.211 51.463 256.124 50.869 253.995 50.8661C247.147 50.8661 241.595 56.9561 241.595 64.4661C241.595 64.9111 241.616 65.3511 241.654 65.7861L322.354 65.7891Z" fill="white"/>
</g>
</g>
<g opacity="0.4">
<mask id="mask8_1_2023" style="mask-type:luminance" maskUnits="userSpaceOnUse" x="58" y="89" width="58" height="48">
<rect x="58.8469" y="89.574" width="56.641" height="47.035" fill="white"/>
</mask>
<g mask="url(#mask8_1_2023)">
<path fill-rule="evenodd" clip-rule="evenodd" d="M85.129 96.7339C85.8139 97.9969 86.181 99.4489 86.929 100.672C87.8473 102.004 89.0053 103.153 90.344 104.062C95.986 108.409 101.824 112.851 108.555 114.487C110.244 114.897 112.034 115.153 113.455 116.24C116.386 118.487 116.104 124.189 112.969 126.076C109.382 128.235 103.976 125.706 101.335 129.136C100.261 130.53 100.055 132.536 99.002 133.951C97.595 135.839 95.121 136.166 92.9019 136.325C91.3833 136.434 89.864 136.529 88.344 136.61C95.1259 119.931 79.1729 115.574 67.9979 102.696C68.3179 102.647 68.6369 102.596 68.9549 102.536C69.5754 102.475 70.1639 102.231 70.6459 101.836C71.1455 101.377 71.2522 100.629 70.9009 100.049C68.731 98.9385 66.4492 98.062 64.0939 97.4339C63.5433 96.5505 63.0216 95.6296 62.5289 94.6709C61.1959 93.0516 59.9688 91.3481 58.855 89.5709C63.8089 89.8299 68.7499 90.2479 73.6779 90.9029C78.0149 91.4789 82.9029 92.6119 85.1359 96.7309" fill="white"/>
</g>
</g>
<path fill-rule="evenodd" clip-rule="evenodd" d="M386.119 258.098C386.119 258.098 354.908 245.305 361.219 236.19C361.219 236.19 361.319 232.926 373.058 237.839C373.058 237.839 377.788 236.857 375.296 232.401C372.803 227.945 362.164 224.986 363.952 218.917C365.741 212.848 372.122 218.409 375.852 218.061C379.582 217.713 367.352 201.222 370.246 197.107C373.14 192.992 378.514 199.188 381.281 198.717C384.048 198.246 378.119 174.387 391.307 172.074C404.495 169.761 396.84 184.206 394.565 191.774C392.29 199.342 401.394 190.743 406.256 196.074C411.118 201.405 388.944 207.305 394.319 212.132C399.694 216.959 403.111 210.59 406.852 214.348C412.9 220.423 389.693 224.294 393.146 228.874C395.9 232.526 401.197 226.155 403.796 228.716C406.395 231.277 401.16 248.578 386.12 258.097" fill="#D9EDF6"/>
<g style="mix-blend-mode:color-dodge" opacity="0.1">
<mask id="mask9_1_2023" style="mask-type:luminance" maskUnits="userSpaceOnUse" x="360" y="171" width="48" height="88">
<rect x="360.824" y="171.83" width="46.647" height="86.269" fill="white"/>
</mask>
<g mask="url(#mask9_1_2023)">
<path fill-rule="evenodd" clip-rule="evenodd" d="M360.824 236.862C360.87 236.767 360.924 236.672 360.975 236.578C361.875 237.316 362.911 238.096 364.06 238.865C368.282 241.693 374.983 244.95 382.986 244.493C382.529 240.083 382.362 235.648 382.486 231.216C375.364 223.377 369.042 220.306 364.993 219.111C364.642 219.011 364.303 218.917 363.974 218.836C364.005 218.736 364.037 218.636 364.074 218.536C364.394 218.616 364.724 218.704 365.065 218.804C369.117 219.995 375.412 223.036 382.499 230.752C382.499 230.732 382.499 230.712 382.499 230.692C382.635 225.792 383.06 220.541 383.769 214.981C382.385 211.938 380.79 208.996 378.995 206.175C376.778 202.535 374.007 199.262 370.782 196.475C370.864 196.4 370.945 196.332 371.028 196.269C374.265 199.071 377.047 202.359 379.277 206.015C380.979 208.698 382.506 211.489 383.85 214.369C384.403 210.132 385.119 205.726 385.998 201.151C387.923 191.258 390.365 181.472 393.314 171.835C393.431 171.83 393.545 171.826 393.658 171.825C390.699 181.484 388.249 191.291 386.319 201.207C385.905 203.36 385.501 205.621 385.119 207.96C387.607 205.984 390.212 204.161 392.92 202.501C397.114 199.884 401.572 197.716 406.219 196.033L406.254 196.071C406.319 196.142 406.379 196.214 406.434 196.286C401.776 197.965 397.308 200.134 393.107 202.756C390.301 204.471 387.61 206.366 385.05 208.43C384.223 213.618 383.528 219.181 383.139 224.81C389.316 220.303 401.296 216.541 407.286 214.845C407.352 214.935 407.414 215.024 407.471 215.114C401.458 216.814 389.204 220.647 383.111 225.223C382.484 233.061 382.75 240.945 383.905 248.723C390.023 246.463 395.179 240.429 398.443 235.737C400.111 233.324 401.632 230.813 402.999 228.217C403.102 228.252 403.202 228.295 403.299 228.347C401.927 230.954 400.398 233.477 398.723 235.901C395.423 240.65 390.191 246.764 383.961 249.035C384.465 252.087 385.235 255.089 386.261 258.007L386.121 258.098L385.921 258.014C384.451 253.735 383.478 249.301 383.021 244.8C382.499 244.83 381.976 244.845 381.453 244.846C378.344 244.836 375.256 244.321 372.312 243.321C369.321 242.299 366.48 240.883 363.864 239.11C362.735 238.354 361.718 237.588 360.825 236.861" fill="#DAEEF7"/>
</g>
</g>
<path fill-rule="evenodd" clip-rule="evenodd" d="M86.139 245.823C86.139 245.823 90.646 223.739 71.65 201.85L69.136 209.75L69.266 199.787C69.266 199.787 57.676 187.503 47.217 180.945C47.217 180.945 51.991 207.56 54.932 213.053L62.097 218.094L54.262 218.16C54.262 218.16 56.567 233.031 66.486 242.991C76.405 252.951 86.139 245.82 86.139 245.82" fill="#FEB546"/>
<path fill-rule="evenodd" clip-rule="evenodd" d="M64.4522 152.884C72.9842 152.97 68.6522 165.114 67.3522 168.338C69.5468 170.158 71.5901 172.152 73.4622 174.302C73.3932 170.079 70.5982 167.058 71.3772 164.402C72.2512 161.423 75.1472 158.882 77.7512 163.941C79.8152 167.949 75.8512 173.106 74.1162 175.076C76.4737 177.883 78.4879 180.961 80.1162 184.245C80.7532 179.365 77.9262 175.51 79.1432 172.583C80.4752 169.383 83.9562 166.939 86.1522 172.923C87.9682 177.869 82.4722 183.33 80.5102 185.076C81.1172 186.35 81.6218 187.67 82.0192 189.024C82.8323 191.926 83.4909 194.869 83.9922 197.84C84.6532 193.555 82.9242 189.78 84.3742 187.264C86.1152 184.245 89.8522 182.298 91.1742 188.615C92.2242 193.615 86.6622 198.115 84.2922 199.784C85.0962 205.341 85.3337 210.966 85.0012 216.571C86.9522 212.971 87.2612 206.593 90.1332 203.871C92.0172 202.084 93.7282 202.396 94.8382 202.981C95.791 203.494 96.4337 204.44 96.5602 205.515C97.4342 211.777 87.8722 216.306 84.9392 217.541C84.5449 223.121 83.5887 228.647 82.0852 234.035C83.1092 232.183 84.6432 229.38 85.3782 227.893C86.5372 225.548 89.2522 222.907 91.6292 222.593C91.7292 222.58 91.8292 222.571 91.9192 222.564C93.705 222.479 95.2439 223.809 95.4192 225.588C96.4192 232.644 84.2192 235.28 81.5752 235.766L81.5462 235.866C79.6571 242.421 76.814 248.662 73.1082 254.389L72.1542 253.723C75.5854 248.383 78.2624 242.595 80.1092 236.523C71.4172 229.851 72.4222 222.495 75.0352 221.083C77.7352 219.624 81.8902 220.966 80.9572 226.154C80.5213 228.939 80.436 231.768 80.7032 234.574C82.2908 229.091 83.3003 223.457 83.7152 217.764C69.5532 213.588 73.6682 204.579 77.3782 204.103C81.1332 203.622 82.4172 206.036 82.4482 210.393C82.4744 212.63 82.924 214.842 83.7732 216.912C84.1175 211.41 83.9048 205.888 83.1382 200.429C80.5272 201.365 73.7162 203.291 70.8872 199.151C67.3512 193.976 71.0972 192.051 74.3082 192.505C77.2602 192.924 78.7962 197.614 83.0132 199.572C82.4983 196.161 81.7732 192.784 80.8422 189.462C80.0363 186.916 78.9263 184.476 77.5362 182.195C75.0042 183.461 68.4562 186.195 65.1222 182.518C60.9342 177.905 64.4542 175.528 67.7332 175.557C70.6582 175.583 72.7432 179.726 76.9532 181.224C74.1715 176.779 70.6997 172.805 66.6682 169.452C64.0332 170.752 57.6742 173.3 54.4062 169.699C50.2182 165.085 53.7382 162.709 57.0172 162.738C59.9842 162.764 62.0842 167.026 66.4172 168.469L66.5012 168.363C65.5552 166.963 63.5382 163.985 62.5012 162.62C61.1112 160.799 60.3172 157.52 61.3502 155.34C61.9277 154.072 63.0823 153.16 64.4502 152.893" fill="#DAEEF7"/>
<path fill-rule="evenodd" clip-rule="evenodd" d="M382.328 256.224C382.328 256.224 379.844 236.399 398.109 218.507L399.795 225.668L400.355 216.868C400.355 216.868 411.428 206.896 421.113 201.892C421.113 201.892 415.092 225.02 412.121 229.647L405.449 233.56L412.366 234.204C412.366 234.204 409.322 247.154 399.884 255.204C390.446 263.254 382.329 256.229 382.329 256.229" fill="#FF5B7E"/>
<path fill-rule="evenodd" clip-rule="evenodd" d="M31.803 206.269C31.7691 213.128 33.5396 219.875 36.937 225.833C40.404 225.492 44.537 225.163 44.537 225.163L39.267 229.379C53.283 248.288 82.125 251.124 82.125 251.124C82.251 234.031 77.225 223.272 70.314 216.546C68.055 217.525 64.714 219.018 64.714 219.018L67.987 214.482C64.4741 211.694 60.4864 209.563 56.216 208.192C54.53 210.559 52.551 213.204 52.551 213.204L52.271 207.087C45.5536 205.574 38.6167 205.297 31.8 206.27" fill="#07085B"/>
<path fill-rule="evenodd" clip-rule="evenodd" d="M70.315 216.546C68.056 217.525 64.715 219.018 64.715 219.018L67.988 214.482C64.4751 211.694 60.4875 209.563 56.217 208.192C54.531 210.559 52.552 213.204 52.552 213.204L52.272 207.087C45.5546 205.574 38.6177 205.297 31.801 206.27C46.147 229.78 82.127 251.126 82.127 251.126C82.253 234.033 77.227 223.274 70.316 216.548" fill="#55769F"/>
<path fill-rule="evenodd" clip-rule="evenodd" d="M28.8721 234.594C33.2555 233.089 37.8989 232.488 42.5211 232.83C43.4861 234.53 44.6851 236.543 44.6851 236.543L45.4701 233.17C61.7241 235.715 73.2051 248.649 73.2051 248.649C62.8401 252.349 54.5901 252.292 48.1561 250.481C47.9881 249.212 47.7671 247.325 47.7671 247.325L46.1121 249.825C43.3176 248.821 40.6858 247.411 38.3011 245.641C39.1721 244.341 40.1131 242.852 40.1131 242.852L36.2941 244.026C33.2318 241.393 30.7109 238.19 28.8721 234.594" fill="#FF5B7E"/>
<path fill-rule="evenodd" clip-rule="evenodd" d="M48.1551 250.48C47.9871 249.211 47.7661 247.324 47.7661 247.324L46.1111 249.824C43.3169 248.821 40.6852 247.413 38.3001 245.646C39.1711 244.346 40.1121 242.857 40.1121 242.857L36.2931 244.031C33.2307 241.396 30.7102 238.191 28.8721 234.594C48.0391 236.313 73.2041 248.646 73.2041 248.646C62.8391 252.351 54.5891 252.289 48.1551 250.478" fill="#E03268"/>
<path fill-rule="evenodd" clip-rule="evenodd" d="M415.625 249.63C415.625 249.63 413.513 239.356 392.918 238.368C372.323 237.38 370.212 244.527 339.584 241.501C308.956 238.475 293.5 226.448 245.274 228.241C197.048 230.034 204.085 237.865 155.811 238.811C107.537 239.757 100.734 230.594 75.1111 233.319C49.4881 236.044 39.0861 250.214 39.0861 250.214L19.5991 279.791L414.568 274L415.625 249.63Z" fill="#02CCC0"/>
<path fill-rule="evenodd" clip-rule="evenodd" d="M296.309 169.42C295.938 169.745 295.603 170.076 295.309 170.42C295.608 170.076 295.938 169.745 296.309 169.42Z" fill="#06BFAD"/>
<path fill-rule="evenodd" clip-rule="evenodd" d="M296.286 170.076C295.919 170.401 295.558 170.736 295.286 171.076C295.558 170.736 295.925 170.401 296.286 170.076Z" fill="#06BFAD"/>
<path fill-rule="evenodd" clip-rule="evenodd" d="M296.265 170.86C295.877 171.186 295.544 171.519 295.265 171.86C295.544 171.519 295.932 171.186 296.265 170.86Z" fill="#06BFAD"/>
<path fill-rule="evenodd" clip-rule="evenodd" d="M296.342 168.687C295.988 169.01 295.633 169.354 295.342 169.687C295.665 169.345 295.988 169.007 296.342 168.687Z" fill="#06BFAD"/>
<path fill-rule="evenodd" clip-rule="evenodd" d="M346.793 255.323C345.318 255.883 343.799 256.218 342.267 256.323C343.799 256.218 345.318 255.883 346.793 255.323Z" fill="#06BFAD"/>
<path fill-rule="evenodd" clip-rule="evenodd" d="M339.529 255.88C339.858 256.285 340.191 256.618 340.529 256.88C340.191 256.623 339.858 256.29 339.529 255.88Z" fill="#06BFAD"/>
<path fill-rule="evenodd" clip-rule="evenodd" d="M342.267 256.789C341.691 257.285 341.115 257.034 340.541 256.036C341.115 257.034 341.691 257.285 342.267 256.789Z" fill="#06BFAD"/>
<defs>
<linearGradient id="paint0_linear_1_2023" x1="154.965" y1="138.156" x2="230.357" y2="219.624" gradientUnits="userSpaceOnUse">
<stop stop-color="white"/>
<stop offset="0.502" stop-color="#656565"/>
<stop offset="1" stop-color="#C9C9C9"/>
</linearGradient>
<linearGradient id="paint1_linear_1_2023" x1="159.842" y1="169.228" x2="179.785" y2="202.491" gradientUnits="userSpaceOnUse">
<stop stop-color="#FFF89A"/>
<stop offset="1" stop-color="#D83300"/>
</linearGradient>
</defs>
</svg>
