<svg width="375" height="131" viewBox="0 0 375 131" fill="none" xmlns="http://www.w3.org/2000/svg">
<mask id="mask0_0_2585" style="mask-type:luminance" maskUnits="userSpaceOnUse" x="0" y="0" width="375" height="132">
<rect y="0.156006" width="374.788" height="131.844" fill="white"/>
</mask>
<g mask="url(#mask0_0_2585)">
<mask id="mask1_0_2585" style="mask-type:luminance" maskUnits="userSpaceOnUse" x="-1" y="17" width="376" height="129">
<rect x="-0.0371094" y="17.612" width="374.825" height="128.388" fill="white"/>
</mask>
<g mask="url(#mask1_0_2585)">
<path fill-rule="evenodd" clip-rule="evenodd" d="M283.074 133.412C287.337 126.175 291.355 116.997 287.231 113.958C275.69 105.385 275.69 133.741 263.82 119.564C257.556 112.31 244.037 72.413 229.859 83.954C217.659 93.846 241.399 114.948 231.837 123.854C223.264 132.097 217.659 105.06 210.075 106.379C201.175 107.698 201.175 128.471 191.281 125.173C179.74 121.546 196.886 95.828 183.368 92.86C168.201 89.233 167.868 114.951 159.628 120.227C157.979 118.579 157.65 116.6 156.99 113.962C155.012 107.038 148.747 72.417 136.877 78.682C122.699 86.265 139.515 108.682 138.525 118.582C137.206 133.419 117.753 104.734 113.466 104.404C100.866 103.545 117.623 125.827 123.752 133.42L283.074 133.412Z" fill="#90CCD6"/>
<path fill-rule="evenodd" clip-rule="evenodd" d="M18.5587 23.14C13.9268 23.153 9.07172 24.085 5.44574 27.155C2.55347 29.7636 0.712036 33.3377 0.266724 37.207C-0.031189 39.3586 -0.0788574 41.5375 0.124756 43.7C0.268127 46.1163 0.903442 48.4779 1.99176 50.64C4.33972 54.765 8.23169 57.7871 12.8098 59.04C17.0184 60.3671 21.5463 60.2754 25.6978 58.779C28.6676 57.587 31.2217 55.5486 33.0427 52.917C36.6678 47.5355 37.6605 40.8017 35.7427 34.603C34.8477 31.612 33.1334 28.9312 30.7938 26.864C28.1765 24.6862 24.938 23.3913 21.5408 23.164C20.5489 23.0857 19.553 23.0753 18.5598 23.133C18.1597 23.155 18.1597 23.773 18.5598 23.751C22.0475 23.4656 25.5393 24.2501 28.5698 26C31.1154 27.6043 33.1271 29.9286 34.3497 32.678C36.8282 38.375 36.6339 44.8811 33.8198 50.42C32.4638 53.1368 30.3854 55.4273 27.8127 57.04C24.504 58.9335 20.6683 59.697 16.8867 59.215C12.2096 58.8246 7.84027 56.7245 4.61377 53.316C3.01917 51.5438 1.87305 49.4149 1.27173 47.108C0.760986 44.9395 0.543396 42.7123 0.624756 40.486C0.541199 36.6067 1.70068 32.8023 3.93372 29.629C6.51776 26.27 10.5338 24.572 14.6398 24.008C15.9394 23.8377 17.249 23.7542 18.5598 23.758C18.7304 23.758 18.8688 23.6197 18.8688 23.449C18.8688 23.2783 18.7304 23.14 18.5598 23.14" fill="#003849"/>
<path fill-rule="evenodd" clip-rule="evenodd" d="M7.05383 26.93C9.10583 28.143 11.7398 28.723 13.4308 30.48C15.4748 32.603 12.8978 34.934 11.2548 36.28C10.3146 36.9488 9.5177 37.7988 8.91083 38.78C8.35852 39.8785 8.23041 41.142 8.55084 42.329C8.88324 43.358 9.50879 44.2676 10.3508 44.946C11.2153 45.5793 11.9566 46.3656 12.5378 47.266C13.2838 48.743 12.5478 50.511 11.6378 51.735C10.4431 53.1928 8.97009 54.3982 7.30481 55.281C7.17041 55.3728 7.12988 55.5529 7.21198 55.6934C7.29407 55.8339 7.47089 55.887 7.61682 55.815C10.1778 54.315 13.2818 52.043 13.4548 48.78C13.5938 46.162 11.0398 45.209 9.72882 43.38C8.94836 42.2334 8.776 40.7783 9.26685 39.481C9.83557 38.3447 10.6902 37.376 11.7468 36.67C13.3948 35.325 15.7908 33.113 14.4358 30.777C13.6598 29.6919 12.5932 28.8479 11.3588 28.342C10.0408 27.672 8.64484 27.15 7.36981 26.396C7.22357 26.3213 7.04437 26.3736 6.9613 26.5153C6.87823 26.657 6.9201 26.8389 7.05682 26.93" fill="#003849"/>
<path fill-rule="evenodd" clip-rule="evenodd" d="M19.2069 23.745C18.4509 26.045 17.9389 28.868 18.8619 31.192C19.7399 33.403 21.9169 34.105 24.1059 34.251C25.002 34.2225 25.897 34.3335 26.7589 34.58C27.6879 34.956 27.7009 35.944 27.5499 36.808C27.2619 38.461 26.3369 39.829 25.7879 41.387C25.2735 42.9061 25.5189 44.5797 26.4479 45.887C28.3049 48.76 31.8189 48.571 34.8259 48.913C35.2209 48.958 35.2169 48.339 34.8259 48.295C32.1769 47.995 28.8729 48.228 27.1259 45.79C26.5728 45.0612 26.2234 44.1984 26.1139 43.29C26.0869 42.4908 26.2587 41.6974 26.614 40.981C27.3245 39.6514 27.8523 38.2319 28.1829 36.761C28.3894 35.9611 28.2112 35.1107 27.7009 34.461C27.1433 34.0004 26.4442 33.7455 25.7209 33.739C23.7589 33.532 21.4579 33.729 20.0569 32.039C18.2809 29.893 19.0189 26.309 19.8079 23.913C19.9329 23.534 19.3359 23.372 19.2079 23.749" fill="#003849"/>
<path fill-rule="evenodd" clip-rule="evenodd" d="M15.374 59.164C17.1711 57.2305 18.0529 54.6192 17.796 51.992C17.4346 50.0572 16.8715 48.1655 16.116 46.348C15.45 44.7452 15.2423 42.9889 15.516 41.275C15.8799 39.886 17.684 38.611 19.066 39.524C20.232 40.295 20.443 42.187 20.5959 43.444C20.796 45.059 20.796 46.689 20.9839 48.306C21.0677 48.8694 21.1816 49.4278 21.325 49.979C21.534 50.921 21.387 51.92 21.6249 52.862C21.7469 53.33 22.059 54.062 22.597 54.181C23.074 54.281 23.4059 53.845 23.619 53.487C23.9912 52.768 24.3169 52.0258 24.5939 51.2651C24.7334 50.9144 24.9041 50.5771 25.1039 50.257C25.3699 49.857 25.5829 49.809 26.08 49.784C28.801 49.651 29.71 52.7 30.549 54.741C30.6979 55.104 31.2969 54.941 31.149 54.577C30.417 52.796 29.694 50.324 27.778 49.462C26.9608 49.0752 26.024 49.0263 25.171 49.326C24.6755 49.697 24.3104 50.2155 24.128 50.807C23.8279 51.487 23.585 52.196 23.2549 52.863C23.028 53.322 22.812 53.863 22.447 53.234C22.0925 52.2885 21.9349 51.2806 21.9839 50.272C21.92 49.672 21.704 49.101 21.624 48.497C21.4059 46.841 21.4189 45.162 21.2239 43.504C21.059 42.111 20.839 40.416 19.824 39.354C18.7018 38.3818 17.0274 38.4111 15.9399 39.422C14.649 40.508 14.64 42.392 14.877 43.922C15.2936 45.8116 15.8693 47.6625 16.598 49.455C17.1182 50.9098 17.3174 52.4599 17.1819 53.999C16.9321 55.7646 16.15 57.4122 14.9399 58.722C14.68 59.022 15.115 59.46 15.378 59.16" fill="#003849"/>
<path fill-rule="evenodd" clip-rule="evenodd" d="M5.54291 30.161C5.87891 30.498 6.18591 30.861 6.5509 31.17C6.61035 31.2261 6.68823 31.2585 6.76996 31.261C6.85193 31.26 6.93036 31.2274 6.98895 31.17C7.10754 31.0481 7.10754 30.8539 6.98895 30.732C6.6239 30.426 6.31592 30.06 5.98096 29.723C5.85999 29.6024 5.66412 29.6027 5.54352 29.7236C5.42285 29.8445 5.42303 30.0404 5.54395 30.161" fill="#003849"/>
<path fill-rule="evenodd" clip-rule="evenodd" d="M10.8998 33.317L10.2067 34.01C10.1495 34.0687 10.1169 34.1471 10.1157 34.229C10.1157 34.3997 10.2541 34.538 10.4247 34.538C10.5063 34.5362 10.5841 34.5037 10.6428 34.447L11.3367 33.754C11.3937 33.6952 11.4258 33.6168 11.4268 33.535C11.427 33.453 11.3945 33.3742 11.3365 33.3162C11.2786 33.2582 11.1998 33.2257 11.1177 33.226C11.0359 33.2277 10.9577 33.2602 10.8987 33.317" fill="#003849"/>
<path fill-rule="evenodd" clip-rule="evenodd" d="M3.90319 37.0353C4.03015 37.161 4.15637 37.2876 4.28192 37.4153C4.34082 37.4724 4.4194 37.5047 4.50135 37.5055C4.54275 37.5074 4.58384 37.4984 4.6206 37.4794C4.65888 37.4668 4.69331 37.4447 4.72083 37.4153C4.7788 37.3569 4.81152 37.278 4.81201 37.1957C4.81048 37.1136 4.77795 37.0351 4.72083 36.9762L4.34204 36.5962C4.28302 36.5394 4.20456 36.5071 4.12262 36.506C4.08128 36.5041 4.04018 36.513 4.00343 36.5321C3.9652 36.5448 3.93077 36.5668 3.90319 36.5962C3.84528 36.6547 3.81256 36.7335 3.81201 36.8158C3.8136 36.8979 3.8462 36.9763 3.90319 37.0353Z" fill="#003849"/>
<path fill-rule="evenodd" clip-rule="evenodd" d="M5.68292 43.215L5.6499 43.259L5.69788 43.197C5.5379 43.4042 5.35205 43.59 5.1449 43.75L5.20392 43.705L5.15991 43.739C5.12482 43.7582 5.09491 43.7856 5.07288 43.819C5.04614 43.8489 5.02722 43.885 5.01788 43.924C4.99664 44.0043 5.00775 44.0898 5.04889 44.162C5.08972 44.2316 5.15607 44.2826 5.23389 44.304C5.31409 44.3272 5.40033 44.316 5.47192 44.273C5.75885 44.0688 6.00964 43.818 6.21387 43.531C6.25568 43.459 6.26685 43.3733 6.24487 43.293C6.22351 43.2147 6.1731 43.1474 6.10388 43.105C6.03186 43.0635 5.94617 43.0523 5.86591 43.074L5.79187 43.105C5.74615 43.1321 5.70795 43.1703 5.68091 43.216" fill="#003849"/>
<path fill-rule="evenodd" clip-rule="evenodd" d="M6.5799 51.061H8.47192C8.64215 51.0601 8.77985 50.8365 8.77985 50.561C8.77985 50.2856 8.64215 50.062 8.47192 50.061H6.5799C6.40967 50.062 6.27197 50.2856 6.27197 50.561C6.27197 50.8365 6.40967 51.0601 6.5799 51.061Z" fill="#003849"/>
<path fill-rule="evenodd" clip-rule="evenodd" d="M17.7689 43.843C18.0465 43.5325 18.3413 43.2377 18.6519 42.96C18.71 42.9019 18.7427 42.8232 18.7429 42.741C18.7421 42.659 18.7095 42.5804 18.6519 42.522C18.5937 42.4641 18.515 42.4314 18.4329 42.431C18.3517 42.4357 18.2745 42.4678 18.2139 42.522C17.9036 42.7999 17.6088 43.0947 17.3309 43.405C17.2099 43.5257 17.2097 43.7216 17.3304 43.8425C17.451 43.9635 17.6469 43.9637 17.7679 43.843" fill="#003849"/>
<path fill-rule="evenodd" clip-rule="evenodd" d="M18.0258 48.556C18.4172 48.7416 18.8212 48.8994 19.2348 49.028C19.3992 49.0722 19.5687 48.9759 19.6148 48.812C19.6562 48.648 19.561 48.4804 19.3989 48.432C19.2128 48.37 19.0258 48.307 18.8419 48.239L18.7108 48.189L18.6298 48.156C18.6118 48.149 18.5468 48.127 18.6229 48.156C18.5256 48.1177 18.4308 48.0736 18.3388 48.024C18.1914 47.9379 18.002 47.9876 17.9158 48.135C17.8297 48.2825 17.8794 48.4719 18.0269 48.558" fill="#003849"/>
<path fill-rule="evenodd" clip-rule="evenodd" d="M19.4286 55.636C19.294 55.905 19.1836 56.185 19.049 56.455C19.0092 56.5277 18.9981 56.6126 19.018 56.693C19.0402 56.7705 19.0911 56.8366 19.1605 56.878C19.2331 56.9217 19.3204 56.9344 19.4025 56.913C19.481 56.8926 19.548 56.8414 19.5882 56.771C19.7227 56.501 19.8331 56.221 19.9677 55.952C20.0074 55.8793 20.0185 55.7944 19.9988 55.714C19.9764 55.6366 19.9255 55.5706 19.8562 55.529C19.7839 55.4875 19.6979 55.4763 19.6173 55.498C19.5391 55.5192 19.4723 55.5702 19.4316 55.64" fill="#003849"/>
<path fill-rule="evenodd" clip-rule="evenodd" d="M25.6639 55.4391C25.9979 55.5591 26.3459 55.6372 26.6729 55.7775C26.7532 55.801 26.8389 55.7891 26.9109 55.7443C26.9818 55.7001 27.0333 55.6275 27.0541 55.5425C27.075 55.4575 27.0634 55.3672 27.0219 55.2913C26.9779 55.2199 26.9127 55.1663 26.8369 55.1392C26.5099 54.999 26.1619 54.9251 25.8289 54.8008C25.6642 54.7535 25.4946 54.8565 25.4479 55.0321C25.4071 55.2078 25.5021 55.3868 25.6639 55.4391" fill="#003849"/>
<path fill-rule="evenodd" clip-rule="evenodd" d="M32.9048 43.468C32.4813 43.9512 32.1547 44.5114 31.9428 45.118C31.8987 45.2824 31.9949 45.4518 32.1589 45.498C32.3231 45.5387 32.4904 45.4432 32.5388 45.281C32.5609 45.215 32.5848 45.148 32.6098 45.081L32.6298 45.032C32.6618 44.954 32.6138 45.066 32.6298 45.022L32.6729 44.927C32.7328 44.797 32.8008 44.671 32.8728 44.548C32.9448 44.425 33.0189 44.315 33.0988 44.203L33.1599 44.12L33.1828 44.09C33.1608 44.119 33.1948 44.075 33.1988 44.071C33.2438 44.014 33.2899 43.958 33.3369 43.903C33.4578 43.7823 33.458 43.5864 33.3373 43.4655C33.2167 43.3445 33.0208 43.3443 32.8998 43.465" fill="#003849"/>
<path fill-rule="evenodd" clip-rule="evenodd" d="M29.8889 39.5329C30.1769 39.6516 30.4716 39.7479 30.7709 39.8211C30.9366 39.8729 31.1076 39.7613 31.1529 39.5718C31.1982 39.3823 31.1006 39.1867 30.9349 39.1349C30.6356 39.0615 30.3409 38.9652 30.0529 38.8466C29.9727 38.8212 29.8868 38.8339 29.8149 38.8821C29.7459 38.9296 29.6952 39.0052 29.6729 39.0937C29.6512 39.1855 29.6624 39.2835 29.7039 39.3659C29.748 39.4421 29.8131 39.4993 29.8889 39.5283" fill="#003849"/>
<path fill-rule="evenodd" clip-rule="evenodd" d="M30.3422 31.184C30.2101 31.5769 30.1131 31.9781 30.0522 32.384C30.0301 32.4646 30.0432 32.5494 30.089 32.622C30.1612 32.7295 30.3005 32.789 30.4425 32.7728C30.5845 32.7566 30.7015 32.668 30.7394 32.548C30.8006 32.1422 30.8977 31.741 31.0295 31.348C31.0802 31.1836 30.9695 31.0142 30.7808 30.968C30.592 30.9267 30.3991 31.0219 30.3434 31.184" fill="#003849"/>
<path fill-rule="evenodd" clip-rule="evenodd" d="M23.195 28.882C23.5598 29.1158 23.9389 29.3265 24.33 29.513C24.4774 29.5992 24.6668 29.5495 24.753 29.4021C24.8391 29.2546 24.7894 29.0652 24.642 28.979C24.2507 28.7929 23.8716 28.5822 23.507 28.348C23.3593 28.2635 23.1711 28.3129 23.084 28.459C23.0022 28.6071 23.0511 28.7932 23.195 28.882Z" fill="#003849"/>
<path fill-rule="evenodd" clip-rule="evenodd" d="M63.437 88.314C61.744 86.4658 59.3698 85.389 56.864 85.333C54.3298 85.3317 52.0378 86.8382 51.0339 89.165C48.8339 93.714 49.8289 100.29 53.923 103.465C57.8069 106.48 63.4399 106.11 67.798 104.423C70.3022 103.476 72.4171 101.718 73.8049 99.428C75.2421 97.1503 75.8562 94.4492 75.5449 91.774C75.0988 88.9838 73.0923 86.6966 70.384 85.891C67.7449 85.111 64.5429 85.844 63.0739 88.312C63.002 88.458 63.0551 88.6347 63.1956 88.7168C63.3361 88.7989 63.5162 88.7584 63.608 88.624C64.879 86.489 67.608 85.839 69.908 86.403C72.2499 86.9811 74.1028 88.7692 74.764 91.089C75.2916 93.5043 74.9369 96.0287 73.764 98.205C72.6861 100.427 70.9088 102.234 68.705 103.348C64.8829 105.275 59.6049 105.891 55.705 103.873C51.33 101.611 49.7809 96.073 50.861 91.497C51.489 88.836 53.174 86.32 56.08 85.987C58.6898 85.7805 61.247 86.8007 62.9979 88.747C63.267 89.041 63.7029 88.603 63.436 88.309" fill="#003849"/>
<path fill-rule="evenodd" clip-rule="evenodd" d="M63.5348 88.167C63.7108 85.331 63.8108 80.861 67.2688 80.056C67.6558 79.965 67.4928 79.37 67.1047 79.456C63.3158 80.338 63.1128 85.026 62.9167 88.163C62.8918 88.563 63.5098 88.563 63.5348 88.163" fill="#003849"/>
<path fill-rule="evenodd" clip-rule="evenodd" d="M63.8859 84.106C63.9534 83.251 63.677 82.4044 63.1179 81.754C62.6475 81.0257 61.9203 80.501 61.0809 80.284C60.6594 80.2378 60.2372 80.3643 59.9107 80.6347C59.5841 80.9051 59.3811 81.2963 59.3479 81.719C59.3556 82.6693 59.9 83.5336 60.7539 83.951C61.6127 84.5861 62.7206 84.7795 63.7439 84.473C63.8901 84.3859 63.9395 84.1977 63.8549 84.05C63.7661 83.9061 63.58 83.8572 63.4319 83.939C63.3105 83.9805 63.1846 84.0074 63.0569 84.019C62.8898 84.0285 62.7223 84.0205 62.5569 83.995C62.1519 83.9273 61.7603 83.7953 61.3969 83.604C60.7859 83.287 60.0519 82.732 59.9629 82.036C59.9412 81.7171 60.0457 81.4025 60.2539 81.16C60.3341 81.0605 60.437 80.9816 60.5539 80.93C60.6588 80.885 60.7734 80.8678 60.8869 80.88C60.9039 80.88 60.9869 80.889 60.9649 80.886L61.0449 80.902C61.1227 80.9204 61.1992 80.9437 61.2739 80.972C61.4136 81.032 61.5474 81.1046 61.6739 81.189C61.9745 81.3939 62.244 81.6411 62.4739 81.923C62.7385 82.2365 62.9556 82.5872 63.1179 82.964C63.1898 83.1407 63.2448 83.3239 63.2819 83.511C63.2966 83.5854 63.304 83.6611 63.3039 83.737C63.3039 83.779 63.3039 83.82 63.3039 83.861C63.3039 83.876 63.3039 83.891 63.3039 83.907C63.2969 84.007 63.3149 83.849 63.3039 83.943C63.2637 84.1069 63.3585 84.2737 63.5199 84.323C63.6843 84.3666 63.8533 84.2705 63.8999 84.107" fill="#003849"/>
<path fill-rule="evenodd" clip-rule="evenodd" d="M60.809 82.11C61.5615 82.9429 62.3994 83.6943 63.309 84.352C63.4564 84.4382 63.6458 84.3885 63.732 84.241C63.8181 84.0936 63.7684 83.9042 63.621 83.818C62.7564 83.1882 61.9606 82.4689 61.2469 81.672C61.1246 81.5597 60.9355 81.5638 60.8181 81.6812C60.7007 81.7986 60.6967 81.9877 60.809 82.11" fill="#003849"/>
<path fill-rule="evenodd" clip-rule="evenodd" d="M55.949 87.869C55.0982 88.1499 54.3614 88.699 53.849 89.434C53.3757 90.1867 53.0825 91.0385 52.9921 91.923C52.9534 92.0867 53.0476 92.2525 53.208 92.303C53.3727 92.3472 53.5424 92.251 53.5891 92.087C53.6678 91.2873 53.9214 90.5147 54.332 89.824C54.7581 89.1845 55.3856 88.7058 56.1151 88.464C56.488 88.333 56.328 87.735 55.9511 87.864" fill="#003849"/>
<path fill-rule="evenodd" clip-rule="evenodd" d="M245.793 104.398C247.898 110.617 250.026 116.829 252.177 123.033C254.151 128.733 256.135 134.433 258.185 140.105C258.871 142.005 259.552 143.905 260.301 145.778C260.329 145.869 260.396 145.942 260.484 145.978C260.572 146.014 260.671 146.008 260.755 145.963C264.289 144.378 267.976 143.122 271.619 141.816C276.262 140.152 280.912 138.502 285.505 136.702C287.995 135.726 290.469 134.702 292.905 133.602C293.025 133.531 293.083 133.388 293.047 133.253C289.785 123.187 286.495 113.143 282.579 103.309C281.318 100.144 280.018 96.994 278.704 93.852C278.655 93.6902 278.488 93.5952 278.324 93.636C268.586 96.464 258.955 99.636 249.356 102.902C248.243 103.28 247.133 103.671 246.012 104.022C245.634 104.141 245.795 104.738 246.177 104.622C248.8 103.799 251.39 102.863 253.994 101.985C258.845 100.351 263.711 98.7647 268.594 97.226C271.883 96.196 275.183 95.1994 278.494 94.236L278.113 94.02C282.154 103.683 285.886 113.429 289.177 123.374C290.284 126.719 291.377 130.068 292.456 133.422L292.598 133.073C283.887 137.037 274.748 139.942 265.798 143.291C263.998 143.964 262.205 144.653 260.453 145.438L260.908 145.623C259.279 141.549 257.863 137.384 256.408 133.248C254.2 126.985 252.023 120.712 249.876 114.429C248.712 111.036 247.555 107.64 246.404 104.243C246.277 103.868 245.679 104.029 245.804 104.407" fill="#003849"/>
<path fill-rule="evenodd" clip-rule="evenodd" d="M251.027 102.636C252.664 107.499 254.316 112.356 255.983 117.209C258.05 123.26 260.123 129.31 262.202 135.357C263.135 138.062 264.069 140.767 265.002 143.471C265.132 143.845 265.729 143.684 265.602 143.307C263.77 138.014 261.948 132.717 260.135 127.418C258.104 121.493 256.079 115.567 254.059 109.64C253.246 107.252 252.437 104.863 251.63 102.473C251.503 102.098 250.906 102.258 251.03 102.637" fill="#003849"/>
<path fill-rule="evenodd" clip-rule="evenodd" d="M267.723 109.31C264.286 110.51 263.257 110.745 261.279 112.662C260.228 113.713 260.228 115.444 261.959 115.568C263.875 115.692 266.596 114.455 268.389 113.775C270.305 113.033 272.16 112.168 273.953 111.302C275.004 110.746 276.24 110.189 276.179 108.891C276.055 106.665 272.222 107.407 267.724 109.31" fill="#003849"/>
<path fill-rule="evenodd" clip-rule="evenodd" d="M264.536 122.785C269.373 121.168 274.127 119.319 278.879 117.468C279.245 117.325 279.086 116.727 278.714 116.868C273.963 118.719 269.209 120.568 264.371 122.185C263.996 122.311 264.156 122.908 264.536 122.785Z" fill="#003849"/>
<path fill-rule="evenodd" clip-rule="evenodd" d="M263.231 120.029C268.068 118.412 272.822 116.563 277.574 114.712C277.94 114.569 277.781 113.971 277.409 114.112C272.658 115.963 267.904 117.812 263.066 119.429C262.691 119.555 262.851 120.152 263.231 120.029Z" fill="#003849"/>
<path fill-rule="evenodd" clip-rule="evenodd" d="M283.152 38.682C280.711 41.26 280.527 45.519 282.026 48.615C284.166 52.471 288.761 54.2401 292.935 52.815C296.568 51.3755 299.126 48.0676 299.605 44.189C299.809 40.3119 297.518 36.7365 293.91 35.302C292.141 34.523 290.16 34.3665 288.291 34.858C286.168 35.5188 284.336 36.889 283.103 38.739C282.871 39.062 283.403 39.372 283.637 39.051C285.72 36.151 289.068 34.488 292.621 35.494C296.046 36.4196 298.569 39.3276 299.003 42.849C299.093 46.34 297.304 49.6113 294.317 51.42C292.486 52.6342 290.226 53.0171 288.097 52.474C286.146 52.0164 284.407 50.9131 283.162 49.343C281.126 46.452 281.09 41.76 283.586 39.123C283.86 38.834 283.423 38.396 283.149 38.685" fill="#003849"/>
<path fill-rule="evenodd" clip-rule="evenodd" d="M285.365 40.371C283.28 42.518 283.575 46.963 285.875 48.801C287.975 50.401 290.504 51.037 292.946 49.635C296.518 47.591 298.356 42.648 294.718 39.294C293.427 37.9848 291.606 37.3427 289.779 37.553C287.953 37.7633 286.325 38.8027 285.365 40.371" fill="#5596A5"/>
<path fill-rule="evenodd" clip-rule="evenodd" d="M286.752 46.322C287.038 45.122 287.324 43.9193 287.612 42.714C287.705 42.327 287.112 42.163 287.012 42.55C286.725 43.75 286.438 44.9527 286.152 46.158C286.06 46.545 286.652 46.71 286.752 46.322Z" fill="#003849"/>
<path fill-rule="evenodd" clip-rule="evenodd" d="M289.613 47.713C290.25 45.043 290.927 42.381 291.564 39.713C291.657 39.326 291.064 39.162 290.964 39.549C290.327 42.22 289.65 44.881 289.013 47.549C288.921 47.936 289.513 48.1 289.613 47.713Z" fill="#003849"/>
<path fill-rule="evenodd" clip-rule="evenodd" d="M293.192 45.153C293.365 44.426 293.497 43.689 293.712 42.972C293.757 42.8063 293.66 42.6353 293.494 42.59C293.328 42.5447 293.157 42.6423 293.112 42.808C292.897 43.525 292.765 44.262 292.592 44.989C292.547 45.1547 292.644 45.3257 292.81 45.371C292.976 45.4163 293.146 45.3187 293.192 45.153Z" fill="#003849"/>
<path fill-rule="evenodd" clip-rule="evenodd" d="M297.481 49.035C300.374 50.142 303.303 51.162 306.242 52.135C307.838 52.7805 309.541 53.1198 311.262 53.135C312.162 53.085 314.104 52.793 314.408 51.749C314.808 50.375 312.524 49.426 311.615 49.018C309.397 48.0745 307.106 47.3127 304.764 46.74C302.897 46.1984 300.999 45.7696 299.08 45.456C298.691 45.402 298.523 45.998 298.915 46.056C300.351 46.2886 301.773 46.5957 303.177 46.976C305.375 47.4993 307.544 48.1416 309.672 48.9C310.602 49.2247 311.504 49.6215 312.372 50.087C312.841 50.348 313.572 50.722 313.779 51.262C314.1 52.091 312.219 52.4 311.671 52.48C309.993 52.5873 308.312 52.3057 306.761 51.657C303.701 50.65 300.652 49.588 297.644 48.436C297.272 48.294 297.111 48.891 297.479 49.036" fill="#003849"/>
<path fill-rule="evenodd" clip-rule="evenodd" d="M109.033 107.938C106.333 99.752 94.9988 99.261 88.5498 102.913C87.7667 103.351 87.0348 103.876 86.3678 104.476C86.0325 104.779 85.7196 105.106 85.4318 105.455C85.1998 105.725 85.0856 106.076 85.1148 106.431C85.0448 108.184 84.9888 109.937 84.9358 111.69C84.7932 116.42 84.6741 121.15 84.5788 125.881C84.4968 129.907 84.3608 133.946 84.4498 137.973C84.4521 138.083 84.5117 138.183 84.6069 138.238C84.702 138.293 84.8189 138.293 84.9148 138.24C90.5578 135.533 97.4968 133.171 103.715 135.24C105.538 135.857 107.203 136.866 108.593 138.196C108.693 138.294 108.846 138.313 108.968 138.244C111.852 135.983 115.382 134.703 119.045 134.589C122.181 134.662 125.265 135.413 128.085 136.789C129.668 137.505 131.199 138.328 132.715 139.175C132.811 139.229 132.928 139.228 133.023 139.174C133.119 139.119 133.178 139.018 133.18 138.908V105.134C133.18 104.766 133.28 104.305 133.027 104.021C132.562 103.599 132.04 103.245 131.477 102.969C127.456 100.662 122.737 99.884 118.189 100.778C114.209 101.526 109.64 103.736 108.433 107.939C108.388 108.105 108.485 108.276 108.651 108.321C108.816 108.366 108.987 108.269 109.033 108.103C109.903 105.074 112.775 103.134 115.601 102.118C119.15 100.871 122.988 100.702 126.633 101.634C128.837 102.191 130.907 103.184 132.72 104.556L132.567 104.289V138.914L133.032 138.647C127.398 135.496 121.067 132.671 114.532 134.662C112.416 135.338 110.431 136.37 108.662 137.714L109.037 137.762C106.592 135.476 103.426 134.116 100.086 133.914C96.6393 133.763 93.1973 134.3 89.9608 135.494C88.1329 136.123 86.3443 136.862 84.6049 137.706L85.0708 137.973C84.9978 134.716 85.0948 131.451 85.1548 128.195C85.2394 123.6 85.3468 119.006 85.4768 114.412C85.5315 112.461 85.5915 110.511 85.6568 108.562C85.6821 107.823 85.7095 107.084 85.7388 106.344C85.7678 105.644 86.7188 104.964 87.2458 104.536C90.4135 102.19 94.326 101.074 98.2548 101.398C102.598 101.655 106.996 103.725 108.439 108.098C108.563 108.474 109.16 108.313 109.039 107.934" fill="#003849"/>
<path fill-rule="evenodd" clip-rule="evenodd" d="M108.424 108.02C108.424 116.213 108.494 124.407 108.527 132.6C108.532 134.221 108.537 135.841 108.541 137.462C108.542 137.632 108.739 137.77 108.982 137.77C109.226 137.77 109.423 137.632 109.424 137.462C109.424 129.269 109.354 121.076 109.321 112.882C109.314 111.262 109.31 109.642 109.307 108.021C109.306 107.851 109.108 107.713 108.865 107.713C108.622 107.713 108.425 107.851 108.424 108.021" fill="#003849"/>
<path fill-rule="evenodd" clip-rule="evenodd" d="M87.8969 109.586C88.3676 108.942 89.1515 108.605 89.9429 108.706C90.5769 108.867 91.1589 109.212 91.7829 109.406C93.2829 109.876 94.3369 109.324 95.6139 108.587C96.3006 108.134 97.1063 107.895 97.9289 107.9C98.8846 108.066 99.8026 108.403 100.639 108.895C101.344 109.314 102.161 109.505 102.978 109.441C103.817 109.283 104.458 108.635 105.278 108.419C105.444 108.374 105.541 108.203 105.496 108.037C105.451 107.871 105.28 107.774 105.114 107.819C104.251 108.045 103.504 108.834 102.6 108.858C101.584 108.715 100.612 108.353 99.7499 107.798C98.3271 107.085 96.6331 107.181 95.2999 108.05C94.7167 108.463 94.066 108.772 93.3769 108.962C92.5334 109.019 91.6912 108.832 90.9509 108.424C90.4556 108.159 89.9007 108.025 89.3389 108.034C88.6061 108.183 87.9443 108.573 87.4589 109.142C87.1739 109.42 87.6109 109.857 87.8969 109.58" fill="#003849"/>
<path fill-rule="evenodd" clip-rule="evenodd" d="M87.8968 113.732C88.3677 113.088 89.1516 112.751 89.9427 112.853C90.5768 113.014 91.1588 113.359 91.7828 113.553C93.2828 114.023 94.3368 113.471 95.6138 112.733C96.3005 112.28 97.1062 112.041 97.9288 112.047C98.8845 112.213 99.8025 112.55 100.639 113.041C101.344 113.459 102.161 113.65 102.978 113.587C103.817 113.431 104.458 112.781 105.278 112.565C105.443 112.52 105.541 112.349 105.496 112.183C105.451 112.017 105.279 111.92 105.114 111.965C104.251 112.192 103.503 112.98 102.6 113.004C101.584 112.861 100.612 112.499 99.7498 111.944C98.327 111.231 96.633 111.327 95.2998 112.196C94.7168 112.61 94.066 112.918 93.3768 113.108C92.5333 113.166 91.6912 112.979 90.9508 112.571C90.4554 112.306 89.9006 112.172 89.3388 112.181C88.6061 112.33 87.9442 112.719 87.4588 113.288C87.1728 113.566 87.6108 114.003 87.8968 113.726" fill="#003849"/>
<path fill-rule="evenodd" clip-rule="evenodd" d="M87.8968 117.878C88.3676 117.234 89.1515 116.897 89.9427 116.999C90.5768 117.16 91.1588 117.505 91.7828 117.699C93.2828 118.169 94.3368 117.617 95.6138 116.88C96.3004 116.427 97.1061 116.188 97.9288 116.193C98.8845 116.359 99.8025 116.696 100.639 117.188C101.344 117.607 102.161 117.797 102.978 117.734C103.817 117.575 104.458 116.928 105.278 116.712C105.443 116.667 105.541 116.496 105.496 116.33C105.451 116.164 105.279 116.067 105.114 116.112C104.251 116.339 103.504 117.127 102.6 117.151C101.584 117.008 100.612 116.646 99.7498 116.091C98.3271 115.378 96.6329 115.474 95.2998 116.343C94.7166 116.756 94.0659 117.065 93.3768 117.255C92.5333 117.312 91.6912 117.125 90.9508 116.717C90.4554 116.452 89.9006 116.318 89.3388 116.327C88.6061 116.476 87.9442 116.865 87.4588 117.434C87.1728 117.712 87.6108 118.149 87.8968 117.872" fill="#003849"/>
<path fill-rule="evenodd" clip-rule="evenodd" d="M87.8969 122.026C88.3676 121.382 89.1515 121.045 89.9429 121.146C90.5769 121.308 91.1589 121.652 91.7829 121.846C93.2829 122.316 94.3369 121.764 95.6139 121.026C96.3006 120.573 97.1063 120.334 97.9289 120.339C98.8846 120.505 99.8026 120.842 100.639 121.334C101.344 121.752 102.161 121.943 102.978 121.88C103.817 121.724 104.459 121.074 105.278 120.858C105.444 120.813 105.541 120.642 105.496 120.476C105.451 120.31 105.28 120.213 105.114 120.258C104.252 120.485 103.503 121.274 102.6 121.297C101.584 121.154 100.612 120.792 99.7499 120.237C98.3271 119.524 96.6331 119.62 95.2999 120.489C94.7167 120.902 94.066 121.211 93.3769 121.401C92.5333 121.458 91.6911 121.272 90.9509 120.863C90.4556 120.598 89.9007 120.464 89.3389 120.473C88.6061 120.622 87.9443 121.012 87.4589 121.581C87.1739 121.859 87.6109 122.296 87.8969 122.019" fill="#003849"/>
<path fill-rule="evenodd" clip-rule="evenodd" d="M87.8968 126.172C88.3676 125.528 89.1515 125.191 89.9427 125.293C90.5768 125.454 91.1588 125.799 91.7828 125.993C93.2828 126.463 94.3368 125.911 95.6138 125.173C96.3005 124.72 97.1062 124.481 97.9288 124.487C98.8846 124.653 99.8026 124.99 100.639 125.482C101.344 125.9 102.161 126.091 102.978 126.028C103.817 125.872 104.458 125.222 105.278 125.006C105.443 124.961 105.541 124.79 105.496 124.624C105.451 124.458 105.279 124.361 105.114 124.406C104.251 124.633 103.504 125.421 102.6 125.445C101.584 125.302 100.612 124.94 99.7498 124.385C98.3271 123.672 96.6329 123.768 95.2998 124.637C94.7168 125.051 94.066 125.359 93.3768 125.549C92.5333 125.607 91.6912 125.42 90.9508 125.012C90.4554 124.747 89.9006 124.613 89.3388 124.622C88.6061 124.771 87.9442 125.16 87.4588 125.729C87.1728 126.007 87.6108 126.444 87.8968 126.167" fill="#003849"/>
<path fill-rule="evenodd" clip-rule="evenodd" d="M87.8969 130.319C88.3676 129.675 89.1515 129.338 89.9429 129.439C90.5769 129.6 91.1589 129.945 91.7829 130.139C93.2829 130.609 94.3369 130.057 95.6139 129.32C96.3006 128.867 97.1063 128.628 97.9289 128.633C98.8846 128.799 99.8026 129.136 100.639 129.628C101.344 130.047 102.161 130.238 102.978 130.174C103.817 130.016 104.458 129.368 105.278 129.152C105.444 129.107 105.541 128.936 105.496 128.77C105.451 128.604 105.28 128.507 105.114 128.552C104.251 128.779 103.504 129.567 102.6 129.591C101.584 129.448 100.612 129.086 99.7499 128.531C98.3272 127.818 96.6331 127.914 95.2999 128.783C94.7167 129.196 94.066 129.505 93.377 129.695C92.5334 129.752 91.6912 129.565 90.9509 129.157C90.4556 128.892 89.9007 128.758 89.3389 128.767C88.6061 128.916 87.9443 129.306 87.4589 129.875C87.1739 130.153 87.6109 130.59 87.8969 130.313" fill="#003849"/>
<path fill-rule="evenodd" clip-rule="evenodd" d="M111.615 109.586C112.086 108.942 112.869 108.605 113.661 108.706C114.295 108.867 114.877 109.212 115.502 109.406C117.002 109.876 118.056 109.324 119.332 108.587C120.019 108.134 120.824 107.895 121.647 107.9C122.603 108.066 123.521 108.403 124.357 108.895C125.062 109.313 125.878 109.504 126.695 109.441C127.534 109.285 128.176 108.635 128.995 108.419C129.161 108.374 129.258 108.203 129.213 108.037C129.168 107.871 128.997 107.774 128.831 107.819C127.968 108.045 127.221 108.834 126.317 108.858C125.301 108.715 124.329 108.353 123.467 107.798C122.044 107.085 120.35 107.181 119.017 108.05C118.434 108.463 117.783 108.772 117.094 108.962C116.25 109.019 115.408 108.832 114.668 108.424C114.172 108.159 113.618 108.025 113.056 108.034C112.323 108.183 111.661 108.573 111.175 109.142C110.889 109.42 111.327 109.857 111.613 109.58" fill="#003849"/>
<path fill-rule="evenodd" clip-rule="evenodd" d="M111.615 113.732C112.086 113.088 112.87 112.751 113.661 112.853C114.295 113.014 114.877 113.359 115.502 113.553C117.002 114.023 118.056 113.471 119.332 112.733C120.019 112.28 120.824 112.041 121.647 112.047C122.603 112.213 123.521 112.55 124.357 113.041C125.062 113.459 125.878 113.65 126.695 113.587C127.534 113.431 128.176 112.781 128.995 112.565C129.161 112.52 129.258 112.349 129.213 112.183C129.168 112.017 128.997 111.92 128.831 111.965C127.968 112.192 127.22 112.98 126.317 113.004C125.301 112.861 124.329 112.499 123.467 111.944C122.044 111.231 120.35 111.327 119.017 112.196C118.434 112.609 117.783 112.918 117.094 113.108C116.25 113.165 115.408 112.979 114.668 112.571C114.172 112.306 113.618 112.172 113.056 112.181C112.323 112.329 111.661 112.719 111.175 113.288C110.889 113.566 111.327 114.003 111.613 113.726" fill="#003849"/>
<path fill-rule="evenodd" clip-rule="evenodd" d="M111.615 117.878C112.086 117.234 112.87 116.897 113.661 116.999C114.295 117.16 114.877 117.505 115.502 117.699C117.002 118.169 118.056 117.617 119.332 116.88C120.019 116.427 120.824 116.188 121.647 116.193C122.603 116.359 123.521 116.696 124.357 117.188C125.062 117.606 125.878 117.796 126.695 117.734C127.534 117.577 128.176 116.928 128.995 116.712C129.161 116.667 129.258 116.496 129.213 116.33C129.168 116.164 128.997 116.067 128.831 116.112C127.968 116.339 127.221 117.127 126.317 117.151C125.301 117.008 124.329 116.646 123.467 116.091C122.044 115.378 120.35 115.474 119.017 116.343C118.434 116.756 117.783 117.065 117.094 117.255C116.25 117.312 115.408 117.125 114.668 116.717C114.172 116.452 113.618 116.318 113.056 116.327C112.323 116.475 111.661 116.865 111.175 117.434C110.889 117.712 111.327 118.149 111.613 117.872" fill="#003849"/>
<path fill-rule="evenodd" clip-rule="evenodd" d="M111.615 122.026C112.086 121.382 112.869 121.045 113.661 121.146C114.295 121.308 114.877 121.652 115.502 121.846C117.002 122.316 118.056 121.764 119.332 121.026C120.019 120.573 120.824 120.334 121.647 120.339C122.603 120.505 123.521 120.842 124.357 121.334C125.062 121.752 125.878 121.943 126.695 121.88C127.534 121.724 128.176 121.074 128.995 120.858C129.161 120.813 129.258 120.642 129.213 120.476C129.168 120.31 128.997 120.213 128.831 120.258C127.969 120.485 127.22 121.274 126.317 121.297C125.301 121.154 124.329 120.792 123.467 120.237C122.044 119.524 120.35 119.62 119.017 120.489C118.434 120.902 117.783 121.211 117.094 121.401C116.25 121.458 115.408 121.272 114.668 120.863C114.172 120.598 113.618 120.464 113.056 120.473C112.323 120.622 111.661 121.012 111.175 121.581C110.889 121.859 111.327 122.296 111.613 122.019" fill="#003849"/>
<path fill-rule="evenodd" clip-rule="evenodd" d="M111.615 126.172C112.086 125.528 112.87 125.191 113.661 125.293C114.295 125.454 114.877 125.799 115.502 125.993C117.002 126.463 118.056 125.911 119.332 125.173C120.019 124.72 120.824 124.481 121.647 124.487C122.603 124.653 123.521 124.99 124.357 125.482C125.062 125.9 125.878 126.09 126.695 126.028C127.534 125.872 128.176 125.222 128.995 125.006C129.161 124.961 129.258 124.79 129.213 124.624C129.168 124.458 128.997 124.361 128.831 124.406C127.968 124.633 127.22 125.421 126.317 125.445C125.301 125.302 124.329 124.94 123.467 124.385C122.044 123.672 120.35 123.768 119.017 124.637C118.434 125.05 117.783 125.359 117.094 125.549C116.25 125.606 115.408 125.42 114.668 125.012C114.172 124.747 113.618 124.613 113.056 124.622C112.323 124.77 111.661 125.16 111.175 125.729C110.889 126.007 111.327 126.444 111.613 126.167" fill="#003849"/>
<path fill-rule="evenodd" clip-rule="evenodd" d="M111.615 130.319C112.086 129.675 112.869 129.338 113.661 129.439C114.295 129.6 114.877 129.945 115.502 130.139C117.002 130.609 118.056 130.057 119.332 129.32C120.019 128.867 120.824 128.628 121.647 128.633C122.603 128.799 123.521 129.136 124.357 129.628C125.062 130.046 125.878 130.237 126.695 130.174C127.534 130.018 128.176 129.368 128.995 129.152C129.161 129.107 129.258 128.936 129.213 128.77C129.168 128.604 128.997 128.507 128.831 128.552C127.968 128.779 127.221 129.567 126.317 129.591C125.301 129.448 124.329 129.086 123.467 128.531C122.044 127.818 120.35 127.914 119.017 128.783C118.434 129.196 117.783 129.505 117.094 129.695C116.25 129.752 115.408 129.565 114.668 129.157C114.172 128.892 113.618 128.758 113.056 128.767C112.323 128.916 111.661 129.306 111.175 129.875C110.889 130.153 111.327 130.59 111.613 130.313" fill="#003849"/>
<path fill-rule="evenodd" clip-rule="evenodd" d="M294.716 94.893C290.855 88.355 290.334 79.532 294.058 72.811C295.793 69.5786 298.649 67.0916 302.09 65.818C306.404 64.3134 311.14 64.5968 315.244 66.605C317.437 67.7466 319.393 69.2936 321.01 71.164C321.89 72.1637 322.697 73.2251 323.425 74.34C324.382 75.7298 325.231 77.1907 325.966 78.71L326.076 78.287C322.276 80.454 318.368 82.433 314.486 84.443C309.63 86.9563 304.763 89.4513 299.886 91.928C298.019 92.8793 296.152 93.8307 294.286 94.782C293.932 94.964 294.244 95.497 294.598 95.316C298.491 93.324 302.386 91.336 306.284 89.352C311.152 86.861 316.017 84.365 320.853 81.813C322.706 80.835 324.561 79.859 326.381 78.821C326.524 78.7319 326.573 78.5461 326.492 78.398C325.809 76.9892 325.026 75.631 324.15 74.334C323.494 73.3091 322.778 72.3247 322.004 71.386C320.541 69.5805 318.792 68.0267 316.827 66.786C312.808 64.3702 307.996 63.6446 303.444 64.768C299.736 65.6855 296.501 67.9483 294.368 71.117C292.238 74.3719 291.053 78.1544 290.946 82.043C290.735 86.6492 291.856 91.2184 294.175 95.204C294.261 95.3514 294.45 95.401 294.598 95.3149C294.745 95.2288 294.795 95.0394 294.709 94.892" fill="#003849"/>
<path fill-rule="evenodd" clip-rule="evenodd" d="M299.4 87.406C297.078 83.4757 296.929 78.6302 299.006 74.565C300.021 72.6634 301.705 71.2057 303.733 70.474C306.246 69.618 308.997 69.8042 311.372 70.991C314.135 72.6066 316.303 75.0721 317.551 78.02C317.588 77.879 317.625 77.738 317.662 77.597C312.65 80.454 307.434 82.983 302.295 85.602C301.188 86.166 300.082 86.73 298.977 87.294C298.623 87.476 298.935 88.009 299.289 87.828C304.431 85.198 309.589 82.598 314.698 79.904C315.798 79.324 316.898 78.745 317.975 78.13C318.119 78.0412 318.168 77.855 318.086 77.707C316.883 74.9564 314.933 72.5977 312.458 70.898C310.073 69.4275 307.201 68.9666 304.475 69.617C299.769 70.71 297.184 75.243 296.956 79.817C296.814 82.5799 297.478 85.3245 298.867 87.717C298.953 87.8644 299.143 87.914 299.29 87.8279C299.437 87.7418 299.487 87.5525 299.401 87.405" fill="#003849"/>
<path fill-rule="evenodd" clip-rule="evenodd" d="M296.852 90.343C297.302 91.151 297.536 92.061 298.009 92.857C298.095 93.0045 298.284 93.0542 298.432 92.968C298.579 92.8819 298.629 92.6925 298.543 92.545C298.07 91.745 297.836 90.839 297.386 90.031C297.192 89.683 296.658 89.995 296.852 90.343" fill="#003849"/>
<path fill-rule="evenodd" clip-rule="evenodd" d="M303.842 87.929C304.102 88.52 304.404 89.0915 304.747 89.639C304.802 89.7344 304.905 89.7929 305.016 89.7923C305.126 89.7917 305.228 89.7322 305.282 89.6363C305.337 89.5403 305.337 89.4224 305.281 89.327C304.939 88.7794 304.636 88.2079 304.376 87.617C304.289 87.4704 304.1 87.4209 303.953 87.506C303.809 87.5948 303.76 87.7809 303.842 87.929" fill="#003849"/>
<path fill-rule="evenodd" clip-rule="evenodd" d="M310.882 84.258C311.031 84.558 311.202 84.838 311.359 85.13C311.515 85.4 311.632 85.6909 311.706 85.994C311.751 86.1597 311.922 86.2573 312.088 86.212C312.254 86.1667 312.351 85.9957 312.306 85.83C312.085 85.1696 311.788 84.5373 311.42 83.946C311.333 83.7994 311.145 83.7499 310.997 83.835C310.853 83.9235 310.804 84.1101 310.886 84.258" fill="#003849"/>
<path fill-rule="evenodd" clip-rule="evenodd" d="M317.167 81.053C317.173 81.061 317.242 81.153 317.212 81.11L317.285 81.21C317.334 81.2767 317.381 81.3434 317.428 81.41C317.52 81.5434 317.608 81.6804 317.692 81.821C317.866 82.107 318.024 82.401 318.174 82.7C318.261 82.8462 318.449 82.8955 318.597 82.811C318.741 82.7222 318.79 82.5361 318.708 82.388C318.404 81.7605 318.035 81.1663 317.608 80.615C317.487 80.4949 317.292 80.4949 317.171 80.615C317.055 80.7379 317.055 80.9301 317.171 81.053" fill="#003849"/>
<path fill-rule="evenodd" clip-rule="evenodd" d="M324.37 75.487C323.804 75.796 323.237 76.103 322.66 76.392C322.514 76.4791 322.464 76.6673 322.549 76.815C322.638 76.9585 322.824 77.0072 322.972 76.926C323.548 76.637 324.115 76.326 324.681 76.021C324.827 75.9342 324.877 75.7456 324.792 75.598C324.703 75.4537 324.517 75.4048 324.369 75.487" fill="#003849"/>
<path fill-rule="evenodd" clip-rule="evenodd" d="M319.731 69.853C319.166 70.365 318.556 70.824 317.971 71.311C317.851 71.4323 317.851 71.6278 317.971 71.749C318.094 71.865 318.285 71.865 318.408 71.749C318.994 71.262 319.608 70.803 320.168 70.29C320.287 70.1689 320.287 69.9742 320.168 69.853C320.046 69.7366 319.853 69.7366 319.731 69.853" fill="#003849"/>
<path fill-rule="evenodd" clip-rule="evenodd" d="M313.347 65.541C312.987 66.056 312.647 66.586 312.291 67.1C312.206 67.2477 312.256 67.4359 312.402 67.523C312.55 67.6047 312.736 67.5559 312.825 67.412C313.185 66.898 313.525 66.368 313.881 65.853C313.966 65.7054 313.917 65.5168 313.77 65.43C313.622 65.3483 313.436 65.3972 313.347 65.541Z" fill="#003849"/>
<path fill-rule="evenodd" clip-rule="evenodd" d="M305.923 64.81C305.774 65.452 305.569 66.079 305.423 66.721C305.377 66.8867 305.475 67.0577 305.641 67.103C305.806 67.1483 305.977 67.0507 306.023 66.885C306.172 66.243 306.377 65.616 306.523 64.974C306.568 64.8083 306.47 64.6373 306.305 64.592C306.139 64.5467 305.968 64.6443 305.923 64.81Z" fill="#003849"/>
<path fill-rule="evenodd" clip-rule="evenodd" d="M298.007 67.976C298.402 68.419 298.868 68.79 299.264 69.233C299.385 69.3526 299.58 69.3526 299.701 69.233C299.818 69.1105 299.818 68.9175 299.701 68.795C299.301 68.353 298.839 67.981 298.444 67.538C298.323 67.4184 298.128 67.4184 298.007 67.538C297.889 67.6603 297.889 67.8537 298.007 67.976" fill="#003849"/>
<path fill-rule="evenodd" clip-rule="evenodd" d="M293.265 74.644C293.776 74.8237 294.296 74.9749 294.824 75.0971C294.931 75.1266 295.046 75.0966 295.125 75.0186C295.204 74.9405 295.236 74.8261 295.208 74.7185C295.179 74.6109 295.096 74.5265 294.989 74.497C294.461 74.3748 293.941 74.2236 293.43 74.044C293.265 74.0004 293.096 74.0964 293.049 74.26C293.008 74.4241 293.103 74.5916 293.265 74.6401" fill="#003849"/>
<path fill-rule="evenodd" clip-rule="evenodd" d="M291.436 82.7336C292.153 82.6712 292.868 82.5978 293.58 82.4742C293.744 82.4183 293.841 82.2106 293.796 82.0094C293.747 81.8115 293.58 81.6952 293.416 81.7451C292.766 81.8577 292.097 81.9188 291.437 81.9776C291.326 81.9771 291.224 82.049 291.169 82.1662C291.113 82.2833 291.113 82.4278 291.169 82.5449C291.224 82.6621 291.326 82.734 291.437 82.7335" fill="#003849"/>
<path fill-rule="evenodd" clip-rule="evenodd" d="M292.674 90.0321C293.231 89.8348 293.776 89.6064 294.307 89.348C294.453 89.2609 294.502 89.0724 294.417 88.925C294.328 88.7812 294.142 88.7324 293.994 88.814C293.867 88.8771 293.739 88.939 293.61 88.997L293.428 89.077L293.35 89.111L293.293 89.135C293.033 89.2411 292.771 89.341 292.508 89.4351C292.342 89.4806 292.245 89.6518 292.29 89.8175C292.336 89.9832 292.507 90.0806 292.673 90.0351" fill="#003849"/>
<path fill-rule="evenodd" clip-rule="evenodd" d="M91.4899 79.8561C92.4899 75.3651 87.9789 70.961 88.1619 66.192C88.382 61.692 92.108 59.567 96.2869 60.332C101.169 61.332 105.02 64.993 104.487 70.425C104.115 74.2161 100.936 76.271 98.5379 78.7251C97.7137 79.5534 97.0345 80.5145 96.5289 81.5681" fill="#FFD066"/>
<path fill-rule="evenodd" clip-rule="evenodd" d="M96.1758 81.382C94.8758 80.944 93.5278 80.601 92.2538 80.076C91.3104 79.6264 90.2617 79.4441 89.2218 79.549C88.6368 79.634 87.8538 79.896 87.7548 80.576C87.6238 81.467 88.7308 82.103 89.3658 82.459L89.4398 81.894C88.5668 82.094 87.2048 82.434 86.7968 83.349C86.2968 84.471 87.9128 85.175 88.6808 85.496V84.896C87.8568 85.202 85.9808 85.891 86.5238 87.122C86.7903 87.5893 87.1934 87.964 87.6788 88.196C88.3567 88.5736 89.0644 88.895 89.7948 89.157C91.2616 89.7483 92.7907 90.1717 94.3528 90.419C95.1778 90.53 96.5008 90.519 96.7418 89.491C96.9828 88.463 95.9548 87.491 95.1768 87.008L95.0208 87.584C96.0138 87.562 97.5438 87.296 97.5128 86.003C97.3282 84.9488 96.6085 84.0665 95.6128 83.674L95.3748 84.239C96.1988 84.439 98.4018 84.898 98.6128 83.56C98.8008 82.36 97.0458 81.644 96.1778 81.378C95.7968 81.261 95.6328 81.858 96.0128 81.978C96.5444 82.1219 97.0449 82.363 97.4888 82.689C97.6888 82.846 98.0418 83.154 98.0058 83.448C97.9058 84.235 95.9128 83.737 95.5398 83.648C95.2128 83.569 94.9748 84.048 95.3018 84.213C96.0535 84.5059 96.6342 85.1207 96.8838 85.888C97.0468 86.856 95.6698 86.957 95.0228 86.971C94.8857 86.9754 94.7675 87.0688 94.7316 87.2013C94.6958 87.3337 94.7507 87.474 94.8668 87.547C95.4058 87.883 96.1328 88.484 96.1548 89.186C96.1808 90.008 94.8938 89.886 94.3838 89.81C93.1836 89.5975 92.0029 89.2865 90.8538 88.88C89.6903 88.5642 88.5847 88.0645 87.5788 87.4C87.3208 87.209 86.9288 86.9 87.1028 86.538C87.3758 85.978 88.3268 85.69 88.8468 85.497C88.9808 85.4588 89.0731 85.3363 89.0731 85.197C89.0731 85.0577 88.9808 84.9353 88.8468 84.897C88.4088 84.714 86.8858 84.118 87.4748 83.429C88.0764 82.911 88.8179 82.5828 89.6058 82.486C89.7238 82.4509 89.8101 82.3496 89.8261 82.2275C89.8421 82.1054 89.7848 81.9854 89.6798 81.921C89.3598 81.741 88.0428 81.062 88.4358 80.521C88.7768 80.047 89.7638 80.097 90.2588 80.142C91.1592 80.3055 92.0355 80.5816 92.8668 80.964C93.9068 81.33 94.9668 81.627 96.0138 81.977C96.3918 82.104 96.5548 81.507 96.1788 81.377" fill="#003849"/>
<path fill-rule="evenodd" clip-rule="evenodd" d="M88.8659 82.383L93.7839 84.05C94.1619 84.178 94.3239 83.581 93.9479 83.45L89.0309 81.781C88.6529 81.653 88.4909 82.249 88.8659 82.381" fill="#003849"/>
<path fill-rule="evenodd" clip-rule="evenodd" d="M90.8788 86.2L94.9378 87.577C95.3159 87.705 95.4778 87.109 95.1028 86.977L91.0438 85.6C90.6658 85.472 90.5038 86.069 90.8798 86.2" fill="#003849"/>
<path fill-rule="evenodd" clip-rule="evenodd" d="M92.723 80.288C93.5597 79.292 94.1219 78.0949 94.354 76.815C94.4836 75.6866 94.5331 74.5504 94.502 73.415C94.6926 72.1073 94.6455 70.7759 94.363 69.485C94.2281 68.9136 93.8293 68.4406 93.289 68.211C92.6358 68.02 91.9303 68.1838 91.428 68.643C90.3 69.799 91.428 71.871 92.544 72.564C94.806 73.964 96.444 71.416 97.312 69.67L96.736 69.514C96.676 70.854 96.684 73.077 98.091 73.787C99.361 74.427 100.723 73.411 101.168 72.241C101.458 71.479 101.468 69.825 100.203 70.172C99.5078 70.4685 98.9189 70.9688 98.514 71.607C97.8979 72.4284 97.3807 73.3196 96.973 74.262C96.0159 76.4439 95.3139 78.729 94.881 81.072C94.806 81.461 95.402 81.627 95.481 81.236C95.7795 79.6898 96.1838 78.1659 96.691 76.675C97.1936 75.0307 97.9504 73.4752 98.934 72.065C99.244 71.653 100.834 69.875 100.734 71.386C100.709 72.444 99.8647 73.2997 98.807 73.338C97.236 73.238 97.301 70.619 97.35 69.512C97.3471 69.374 97.2536 69.2545 97.1204 69.2185C96.9872 69.1824 96.8462 69.2384 96.774 69.356C96.13 70.656 95.012 72.907 93.207 72.207C92.5427 71.9197 92.0262 71.3713 91.7791 70.691C91.579 70.191 91.452 69.411 91.927 69.013C92.3462 68.6746 92.9396 68.657 93.3781 68.97C93.7012 69.3504 93.8902 69.8265 93.916 70.325C94.0076 71.3432 93.9962 72.3681 93.882 73.384C93.827 74.363 93.9511 75.325 93.809 76.307C93.6429 77.608 93.1137 78.8359 92.282 79.85C92.0281 80.15 92.463 80.592 92.7191 80.288" fill="#003849"/>
<path fill-rule="evenodd" clip-rule="evenodd" d="M326.212 20.872C321.703 20.4809 317.443 22.9983 315.612 27.137C313.854 31.0674 314.456 35.6526 317.169 38.996C320.674 42.8072 325.988 44.3861 331.006 43.107C333.395 42.4511 335.426 40.8736 336.653 38.721C337.853 36.4573 338.362 33.8906 338.116 31.34C337.955 29.0715 337.087 26.9106 335.634 25.161C333.795 23.1498 331.357 21.7847 328.682 21.268C327.868 21.0879 327.044 20.9544 326.215 20.868C325.82 20.825 325.823 21.444 326.215 21.486C329.085 21.6756 331.831 22.7236 334.098 24.494C335.749 25.9257 336.878 27.8658 337.306 30.009C338.247 34.554 336.639 39.992 332.183 42.023C327.904 43.974 322.064 42.7 318.627 39.611C315.63 36.8358 314.489 32.5893 315.691 28.686C316.956 24.0282 321.415 20.9775 326.215 21.486C326.615 21.513 326.615 20.895 326.215 20.868" fill="#003849"/>
<path fill-rule="evenodd" clip-rule="evenodd" d="M326.286 23.983C323.009 23.701 319.917 25.536 318.594 28.547C317.327 31.3984 317.774 34.72 319.748 37.136C322.293 39.894 326.15 41.0271 329.782 40.084C333.492 39.013 335.21 35.248 334.907 31.594C334.784 29.7214 333.991 27.9557 332.673 26.62C330.9 25.0499 328.652 24.1199 326.289 23.979C325.894 23.935 325.897 24.554 326.289 24.597C329.911 24.997 333.367 26.827 334.155 30.644C334.821 33.869 333.677 37.729 330.508 39.161C327.209 40.4132 323.488 39.7284 320.851 37.384C318.759 35.4034 317.979 32.4038 318.841 29.655C319.803 26.4109 322.919 24.295 326.289 24.597C326.689 24.623 326.689 24.005 326.289 23.979" fill="#003849"/>
<path fill-rule="evenodd" clip-rule="evenodd" d="M353.614 30.93C349.102 30.5349 344.839 33.0525 343.006 37.194C341.248 41.1244 341.85 45.7097 344.563 49.053C348.068 52.8669 353.385 54.4472 358.405 53.167C360.794 52.5108 362.825 50.9333 364.052 48.781C365.252 46.5172 365.76 43.9505 365.514 41.4C365.353 39.1314 364.485 36.9704 363.032 35.221C361.193 33.2098 358.755 31.8447 356.08 31.328C355.266 31.1477 354.442 31.0142 353.613 30.928C353.218 30.885 353.221 31.504 353.613 31.546C356.483 31.7357 359.229 32.7837 361.496 34.554C363.147 35.9855 364.276 37.9257 364.704 40.069C365.645 44.614 364.038 50.052 359.581 52.082C355.302 54.033 349.462 52.759 346.025 49.67C343.028 46.895 341.887 42.6483 343.089 38.745C344.354 34.0872 348.813 31.0365 353.613 31.545C354.013 31.572 354.013 30.954 353.613 30.927" fill="#003849"/>
<path fill-rule="evenodd" clip-rule="evenodd" d="M353.683 34.043C350.406 33.761 347.314 35.596 345.991 38.607C344.724 41.4584 345.17 44.7801 347.145 47.196C349.689 49.9521 353.544 51.0846 357.175 50.143C360.885 49.072 362.603 45.306 362.3 41.652C362.175 39.7805 361.381 38.0162 360.063 36.682C358.291 35.112 356.042 34.182 353.679 34.041C353.284 33.997 353.287 34.616 353.679 34.659C357.301 35.059 360.757 36.889 361.545 40.706C362.211 43.931 361.067 47.791 357.898 49.223C354.599 50.4757 350.878 49.7909 348.241 47.446C346.15 45.4652 345.37 42.4658 346.231 39.717C347.193 36.4728 350.309 34.3566 353.679 34.658C354.079 34.684 354.079 34.066 353.679 34.04" fill="#003849"/>
<path fill-rule="evenodd" clip-rule="evenodd" d="M338.096 34.359C339.925 33.223 342.531 34.401 343.496 36.153C343.688 36.501 344.223 36.19 344.03 35.841C342.903 33.799 339.892 32.514 337.781 33.825C337.444 34.035 337.754 34.57 338.094 34.359" fill="#003849"/>
<path fill-rule="evenodd" clip-rule="evenodd" d="M337.626 36.714C339.346 35.563 341.771 36.65 342.642 38.366C342.822 38.721 343.355 38.409 343.176 38.054C342.159 36.054 339.302 34.854 337.314 36.18C336.985 36.4 337.294 36.936 337.626 36.714Z" fill="#003849"/>
<path fill-rule="evenodd" clip-rule="evenodd" d="M321.235 30.057L326.63 27.557C326.991 27.39 326.677 26.857 326.317 27.023L320.922 29.523C320.562 29.69 320.875 30.223 321.235 30.057Z" fill="#003849"/>
<path fill-rule="evenodd" clip-rule="evenodd" d="M323.049 33.49C325.543 32.334 328.026 31.154 330.521 29.998C330.881 29.831 330.568 29.298 330.209 29.464C327.715 30.62 325.231 31.8 322.737 32.956C322.377 33.123 322.69 33.656 323.05 33.49" fill="#003849"/>
<path fill-rule="evenodd" clip-rule="evenodd" d="M326.924 35.321C327.665 35.009 328.384 34.649 329.114 34.311C329.26 34.2235 329.309 34.0354 329.224 33.888C329.136 33.7433 328.949 33.6942 328.801 33.777C328.12 34.094 327.451 34.435 326.759 34.726C326.598 34.7761 326.504 34.9423 326.543 35.106C326.59 35.2701 326.759 35.3663 326.924 35.322" fill="#003849"/>
<path fill-rule="evenodd" clip-rule="evenodd" d="M348.123 41.727L355.317 38.396C355.678 38.229 355.364 37.696 355.005 37.862L347.811 41.193C347.451 41.36 347.764 41.893 348.123 41.727Z" fill="#003849"/>
<path fill-rule="evenodd" clip-rule="evenodd" d="M352.642 45.096C354.042 44.4167 355.453 43.7637 356.874 43.137C357.021 43.0502 357.07 42.8616 356.985 42.714C356.896 42.5697 356.71 42.5208 356.562 42.603C355.139 43.2304 353.729 43.8834 352.33 44.562C351.972 44.736 352.286 45.269 352.642 45.096Z" fill="#003849"/>
<path fill-rule="evenodd" clip-rule="evenodd" d="M356.749 46.3179L357.125 46.1001C357.16 46.0761 357.191 46.0413 357.213 45.9989C357.24 45.9613 357.259 45.9155 357.269 45.866C357.281 45.8155 357.283 45.7619 357.274 45.7103C357.272 45.6584 357.259 45.6081 357.236 45.5647C357.195 45.4768 357.128 45.4124 357.05 45.385L356.966 45.371C356.911 45.371 356.856 45.3893 356.808 45.4242L356.434 45.6419C356.398 45.6661 356.368 45.7009 356.345 45.7432C356.292 45.8231 356.269 45.9289 356.284 46.0318C356.286 46.0836 356.298 46.1339 356.321 46.1774C356.362 46.2655 356.429 46.33 356.507 46.3571L356.591 46.371C356.646 46.3713 356.7 46.3529 356.748 46.3179" fill="#003849"/>
<path fill-rule="evenodd" clip-rule="evenodd" d="M82.6938 39.296C79.4568 39.911 76.2328 40.607 73.0238 41.355C71.7037 41.663 70.3728 41.961 69.0798 42.367C68.7833 42.4323 68.4995 42.5458 68.2397 42.703C67.9526 43.0262 67.7946 43.4437 67.7958 43.876C67.6011 45.4906 67.5249 47.1173 67.5677 48.743C67.5695 48.853 67.629 48.9539 67.7244 49.0087C67.8198 49.0634 67.937 49.064 68.0328 49.01C68.7656 48.4847 69.4225 47.8609 69.9848 47.156C70.2943 46.7238 70.6542 46.33 71.0568 45.983C71.8392 45.4585 72.6633 44.999 73.5208 44.609C75.8368 43.45 78.2068 42.409 80.5208 41.243C81.3942 40.8558 82.2236 40.3761 82.9948 39.812C83.3038 39.561 82.8647 39.126 82.5578 39.374C81.8906 39.856 81.1751 40.2672 80.4228 40.601C79.3228 41.158 78.2078 41.684 77.0928 42.21C74.9766 43.1029 72.9236 44.1386 70.9479 45.31C69.6748 46.141 68.9968 47.61 67.7198 48.474L68.1848 48.742C68.1848 47.388 68.1988 46.029 68.3198 44.68C68.3528 44.314 68.3608 43.455 68.5848 43.211C68.824 43.0783 69.0824 42.9835 69.3508 42.93C72.2308 42.05 75.2228 41.472 78.1648 40.847C79.7258 40.515 81.2898 40.189 82.8588 39.89C83.2488 39.816 83.0838 39.22 82.6938 39.29" fill="#003849"/>
<path fill-rule="evenodd" clip-rule="evenodd" d="M70.626 46.49C71.811 47.59 72.79 48.88 73.941 50.011C74.43 50.492 75.073 51.025 75.65 50.391C76.2538 49.6827 76.8192 48.9427 77.344 48.174C78.275 46.897 79.185 45.606 80.085 44.307C81.2144 42.6777 82.324 41.035 83.414 39.379C83.633 39.045 83.098 38.735 82.88 39.067C80.821 42.205 78.696 45.308 76.468 48.329C76.131 48.786 75.793 49.242 75.437 49.684C75.17 50.013 75.118 50.191 74.729 49.894C74.1651 49.4035 73.6488 48.8607 73.187 48.273C72.507 47.506 71.814 46.752 71.063 46.053C70.772 45.782 70.333 46.219 70.626 46.491" fill="#003849"/>
<path fill-rule="evenodd" clip-rule="evenodd" d="M83.1467 38.914C79.5228 38.745 75.8998 38.532 72.2717 38.441C70.5267 38.397 68.7717 38.356 67.0277 38.463C66.5277 38.493 64.9647 38.434 64.8538 39.163C64.7537 39.815 65.7448 40.707 66.1207 41.13C66.7598 41.862 67.4395 42.5574 68.1567 43.213C68.4517 43.479 68.8898 43.043 68.5938 42.776C68.0338 42.276 67.5087 41.723 66.9937 41.176C66.6937 40.852 66.3937 40.522 66.1147 40.176C65.9807 40.013 65.8488 39.848 65.7297 39.676C65.6633 39.5329 65.5825 39.3969 65.4888 39.27C65.3517 39.156 65.5267 39.334 65.4297 39.333C65.3927 39.333 65.4767 39.319 65.4597 39.317C65.6373 39.2917 65.8119 39.2485 65.9807 39.188C66.5167 39.1097 67.0571 39.0656 67.5988 39.056C71.1257 38.917 74.6768 39.121 78.1987 39.288C79.8477 39.366 81.4987 39.458 83.1467 39.535C83.5468 39.553 83.5468 38.935 83.1467 38.917" fill="#003849"/>
<path fill-rule="evenodd" clip-rule="evenodd" d="M52.5039 70.309C56.3537 69.1437 59.254 65.9604 60.0569 62.019C60.3546 60.4919 60.0956 58.9087 59.3269 57.556C58.5955 56.2219 57.4765 55.141 56.1179 54.456C54.9505 53.8412 53.5282 53.9862 52.5089 54.824C51.3219 55.836 50.4089 57.824 51.2279 59.304C52.0719 60.83 54.1279 61.198 55.7139 61.149C57.799 61.0902 59.7761 60.2091 61.2139 58.698C62.3609 57.451 62.7689 55.7401 63.3049 54.1801C63.5534 53.3437 63.9357 52.5532 64.4369 51.8391C64.9918 51.0703 65.8325 50.5571 66.7699 50.4151C66.9406 50.4151 67.0789 50.2767 67.0789 50.106C67.0789 49.9354 66.9406 49.797 66.7699 49.7971C65.5172 49.9625 64.405 50.6816 63.7399 51.756C63.0848 52.9023 62.5835 54.1299 62.2489 55.407C61.8771 56.7853 61.1006 58.0204 60.02 58.953C58.3672 60.2572 56.2361 60.7935 54.1629 60.427C52.5499 60.127 51.0989 59.004 51.6779 57.2121C52.1289 55.821 53.3149 54.4771 54.8969 54.7121C56.2108 55.0202 57.3658 55.7998 58.1429 56.903C59.046 57.9667 59.5484 59.3128 59.5629 60.708C59.5249 64.849 56.1909 68.5441 52.3449 69.715C51.9659 69.83 52.1279 70.427 52.5099 70.315" fill="#003849"/>
<path fill-rule="evenodd" clip-rule="evenodd" d="M16.1799 133.166C34.2319 114.866 56.9799 112.641 80.97 111.157C78.2499 116.597 66.627 122.532 60.939 125.5C55.3661 128.273 49.577 130.589 43.629 132.424C34.7289 134.65 25.329 132.919 16.429 133.166" fill="#D67676"/>
<path fill-rule="evenodd" clip-rule="evenodd" d="M17.0218 133.524C24.4628 130.767 31.8868 127.952 39.4288 125.479C46.7958 123.064 54.3208 121.254 61.7628 119.099C65.8 117.971 69.7594 116.582 73.6158 114.939C74.0528 114.748 73.6758 114.109 73.2418 114.299C66.2888 117.339 58.8818 119.141 51.5758 121.099C44.0448 123.122 36.6488 125.545 29.3148 128.199C25.1408 129.707 20.9868 131.267 16.8248 132.809C16.3808 132.974 16.5738 133.691 17.0248 133.525" fill="#003849"/>
<path fill-rule="evenodd" clip-rule="evenodd" d="M35.3339 122.024C33.0438 124.296 30.0939 125.97 28.2278 128.652C28.1436 128.798 28.1674 128.982 28.2858 129.102C29.7388 130.364 31.7789 130.52 33.5189 131.176C33.9669 131.344 34.1599 130.628 33.7189 130.46C32.1188 129.86 30.1439 129.733 28.8138 128.577L28.8718 129.027C30.6929 126.408 33.6229 124.769 35.8619 122.549C36.0068 122.403 36.0062 122.168 35.8604 122.023C35.7145 121.878 35.4788 121.878 35.3339 122.024" fill="#003849"/>
<path fill-rule="evenodd" clip-rule="evenodd" d="M44.669 118.512C43.134 120.665 41.122 122.438 39.723 124.694C39.6661 124.794 39.6581 124.914 39.7015 125.021C39.7448 125.127 39.8345 125.208 39.945 125.24C43.056 126.004 46.316 126.103 49.345 127.218C49.794 127.383 49.987 126.666 49.545 126.502C46.519 125.387 43.259 125.289 40.145 124.524C40.219 124.706 40.292 124.888 40.367 125.07C41.767 122.816 43.777 121.039 45.313 118.888C45.59 118.498 44.947 118.128 44.672 118.513" fill="#003849"/>
<path fill-rule="evenodd" clip-rule="evenodd" d="M54.1938 116.41C53.3158 118.01 52.1108 119.604 51.8077 121.445C51.7601 121.642 51.8735 121.842 52.0668 121.902C53.8841 122.527 55.7434 123.023 57.6308 123.386C58.0968 123.479 58.2968 122.764 57.8307 122.67C55.9431 122.309 54.0837 121.813 52.2668 121.186C52.3521 121.338 52.4384 121.49 52.5258 121.642C52.8198 119.864 53.9888 118.331 54.8378 116.785C55.0677 116.366 54.4277 115.991 54.1968 116.41" fill="#003849"/>
<path fill-rule="evenodd" clip-rule="evenodd" d="M63.5508 115.263C63.126 116.315 62.7546 117.388 62.4378 118.478C62.396 118.64 62.4655 118.81 62.6088 118.897C63.6809 119.356 64.7836 119.74 65.9088 120.047C66.3638 120.197 66.5578 119.481 66.1088 119.331C65.0433 119.045 63.9988 118.686 62.9828 118.256L63.1528 118.674C63.4698 117.584 63.8413 116.511 64.2658 115.459C64.4188 115.005 63.7028 114.811 63.5508 115.259" fill="#003849"/>
<path fill-rule="evenodd" clip-rule="evenodd" d="M48.699 118.7C48.3714 118.719 48.1152 118.99 48.1152 119.318C48.1152 119.646 48.3714 119.917 48.699 119.936C49.0267 119.917 49.2828 119.646 49.2828 119.318C49.2828 118.99 49.0267 118.719 48.699 118.7Z" fill="#003849"/>
<path fill-rule="evenodd" clip-rule="evenodd" d="M50.3069 116.969C49.9793 116.988 49.7231 117.259 49.7231 117.587C49.7231 117.915 49.9793 118.186 50.3069 118.205C50.6346 118.186 50.8907 117.915 50.8907 117.587C50.8907 117.259 50.6346 116.988 50.3069 116.969Z" fill="#003849"/>
<path fill-rule="evenodd" clip-rule="evenodd" d="M60.3218 120.431C59.9942 120.45 59.738 120.721 59.738 121.049C59.738 121.377 59.9942 121.648 60.3218 121.667C60.6495 121.648 60.9056 121.377 60.9056 121.049C60.9056 120.721 60.6495 120.45 60.3218 120.431Z" fill="#003849"/>
<path fill-rule="evenodd" clip-rule="evenodd" d="M62.053 121.42C61.7254 121.439 61.4692 121.71 61.4692 122.038C61.4692 122.366 61.7254 122.637 62.053 122.656C62.3807 122.637 62.6368 122.366 62.6368 122.038C62.6368 121.71 62.3807 121.439 62.053 121.42Z" fill="#003849"/>
<path fill-rule="evenodd" clip-rule="evenodd" d="M75.9009 113.136C75.5732 113.155 75.3171 113.426 75.3171 113.754C75.3171 114.082 75.5732 114.353 75.9009 114.372C76.2286 114.353 76.4847 114.082 76.4847 113.754C76.4847 113.426 76.2286 113.155 75.9009 113.136Z" fill="#003849"/>
<path fill-rule="evenodd" clip-rule="evenodd" d="M1.19891 113.216C0.456909 99.616 1.19891 86.261 9.60693 74.886C16.778 65.486 29.1429 57.823 40.2709 54.361C40.0239 66.726 34.0889 82.552 26.1709 91.949C22.2117 96.5694 17.7336 100.718 12.825 104.314C9.36292 107.034 5.65393 111.485 1.2019 112.475" fill="#5596A5"/>
<path fill-rule="evenodd" clip-rule="evenodd" d="M2.54596 111.089C5.77185 103.625 9.67871 96.4742 14.2169 89.7271C16.343 86.494 18.595 83.356 20.8019 80.18C22.939 77.106 24.926 73.931 27.0359 70.84C29.2708 67.3753 31.8907 64.1749 34.8459 61.3C35.1979 60.976 34.671 60.452 34.321 60.776C28.858 65.816 25.1429 72.476 21.011 78.568C18.829 81.788 16.525 84.922 14.366 88.16C12.126 91.519 9.97394 94.938 7.97797 98.449C5.68341 102.471 3.6308 106.626 1.83099 110.893C1.64697 111.332 2.36395 111.524 2.54596 111.093" fill="#003849"/>
<path fill-rule="evenodd" clip-rule="evenodd" d="M4.66187 93.805C4.80621 96.823 5.14026 99.8289 5.66187 102.805C5.70752 102.965 5.85321 103.076 6.01984 103.078C7.64117 103.132 9.25818 102.881 10.7869 102.338C12.3511 101.854 13.8784 101.258 15.3569 100.554C15.7889 100.354 15.4119 99.711 14.9828 99.914C13.561 100.588 12.0925 101.159 10.5889 101.623C9.12433 102.146 7.57416 102.388 6.01984 102.336L6.37787 102.609C5.86853 99.699 5.5426 96.7598 5.40186 93.809C5.38086 93.334 4.63885 93.331 4.65985 93.809" fill="#003849"/>
<path fill-rule="evenodd" clip-rule="evenodd" d="M11.215 81.563C11.4579 85.25 10.5659 89.049 11.5989 92.663C11.646 92.8223 11.7908 92.9328 11.957 92.936C13.8611 92.9391 15.7546 92.6531 17.5729 92.088C19.4376 91.6126 21.2285 90.8845 22.8959 89.924C23.3029 89.676 22.931 89.034 22.522 89.284C20.9091 90.2164 19.176 90.923 17.3709 91.384C15.6167 91.9311 13.7895 92.2079 11.952 92.205L12.3099 92.478C11.298 88.934 12.1899 85.187 11.952 81.572C11.921 81.098 11.179 81.094 11.21 81.572" fill="#003849"/>
<path fill-rule="evenodd" clip-rule="evenodd" d="M17.6439 73.898C17.6439 75.166 17.5439 76.433 17.5249 77.698C17.4092 79.1969 17.5184 80.7045 17.8489 82.171C17.9281 82.598 18.2074 82.9611 18.5999 83.147C19.0732 83.2982 19.5726 83.3503 20.0669 83.3C21.6252 83.1921 23.1711 82.9482 24.6869 82.571C26.0869 82.262 27.4779 81.897 28.8709 81.548C29.0609 81.4867 29.1686 81.2863 29.1149 81.0939C29.0612 80.9016 28.8652 80.786 28.6709 80.832C26.1229 81.5634 23.5273 82.1181 20.9029 82.492C20.2299 82.565 18.8759 82.861 18.5949 82.077C18.256 80.7487 18.1434 79.3728 18.2619 78.007C18.2719 76.636 18.3779 75.266 18.3839 73.896C18.3839 73.6911 18.2178 73.525 18.0129 73.525C17.808 73.525 17.6419 73.6911 17.6419 73.896" fill="#003849"/>
<path fill-rule="evenodd" clip-rule="evenodd" d="M24.4448 65.366C24.4378 66.5591 24.2768 67.7511 24.2378 68.944C24.0742 70.1406 24.2163 71.3592 24.6508 72.4861C25.1438 73.3741 26.3368 73.1951 27.1788 73.0591C28.5906 72.7954 29.9748 72.4014 31.3138 71.882C32.5658 71.431 33.8138 70.94 35.0138 70.382C35.4468 70.1821 35.0708 69.543 34.6398 69.742C32.4749 70.7667 30.2144 71.5756 27.8909 72.157C27.3629 72.2942 26.8231 72.381 26.2788 72.416C25.9868 72.4281 25.5718 72.4621 25.3578 72.2251C25.1236 71.8342 25.0034 71.3856 25.0108 70.9301C24.9595 70.3078 24.9465 69.6829 24.9718 69.0591C25.0068 67.827 25.1718 66.5961 25.1828 65.364C25.1828 65.1591 25.0167 64.993 24.8118 64.993C24.6069 64.993 24.4408 65.1591 24.4408 65.364" fill="#003849"/>
<path fill-rule="evenodd" clip-rule="evenodd" d="M19.1277 69.323C18.8 69.3416 18.5439 69.6128 18.5439 69.941C18.5439 70.2692 18.8 70.5403 19.1277 70.559C19.4554 70.5403 19.7115 70.2692 19.7115 69.941C19.7115 69.6128 19.4554 69.3417 19.1277 69.323Z" fill="#003849"/>
<path fill-rule="evenodd" clip-rule="evenodd" d="M20.8589 67.464C20.5313 67.4826 20.2751 67.7538 20.2751 68.082C20.2751 68.4102 20.5313 68.6813 20.8589 68.7C21.1866 68.6813 21.4427 68.4102 21.4427 68.082C21.4427 67.7538 21.1866 67.4827 20.8589 67.464Z" fill="#003849"/>
<path fill-rule="evenodd" clip-rule="evenodd" d="M21.3528 70.064C21.0251 70.0827 20.769 70.3538 20.769 70.682C20.769 71.0102 21.0251 71.2814 21.3528 71.3C21.6805 71.2813 21.9366 71.0102 21.9366 70.682C21.9366 70.3538 21.6805 70.0827 21.3528 70.064Z" fill="#003849"/>
<path fill-rule="evenodd" clip-rule="evenodd" d="M29.0189 76.989C28.6912 77.0077 28.4351 77.2788 28.4351 77.607C28.4351 77.9352 28.6912 78.2064 29.0189 78.225C29.3465 78.2063 29.6026 77.9352 29.6026 77.607C29.6026 77.2788 29.3465 77.0077 29.0189 76.989Z" fill="#003849"/>
<path fill-rule="evenodd" clip-rule="evenodd" d="M30.7498 74.635C30.4221 74.6537 30.166 74.9248 30.166 75.253C30.166 75.5812 30.4221 75.8524 30.7498 75.871C31.0775 75.8523 31.3336 75.5812 31.3336 75.253C31.3336 74.9248 31.0775 74.6537 30.7498 74.635Z" fill="#003849"/>
<path fill-rule="evenodd" clip-rule="evenodd" d="M31.616 77.236C31.2883 77.2547 31.0322 77.5258 31.0322 77.854C31.0322 78.1822 31.2883 78.4534 31.616 78.472C31.9437 78.4533 32.1998 78.1822 32.1998 77.854C32.1998 77.5258 31.9437 77.2547 31.616 77.236Z" fill="#003849"/>
<path fill-rule="evenodd" clip-rule="evenodd" d="M15.418 95.408C15.0903 95.4267 14.8342 95.6978 14.8342 96.026C14.8342 96.3542 15.0903 96.6253 15.418 96.644C15.7456 96.6253 16.0017 96.3542 16.0017 96.026C16.0017 95.6978 15.7456 95.4267 15.418 95.408Z" fill="#003849"/>
<path fill-rule="evenodd" clip-rule="evenodd" d="M18.0149 94.666C17.6873 94.6847 17.4312 94.9558 17.4312 95.284C17.4312 95.6122 17.6873 95.8833 18.0149 95.902C18.3425 95.8833 18.5986 95.6122 18.5986 95.284C18.5986 94.9558 18.3425 94.6847 18.0149 94.666Z" fill="#003849"/>
<path fill-rule="evenodd" clip-rule="evenodd" d="M6.88696 87.128C6.55933 87.1467 6.30322 87.4178 6.30322 87.746C6.30322 88.0742 6.55933 88.3453 6.88696 88.364C7.2146 88.3453 7.4707 88.0742 7.4707 87.746C7.4707 87.4178 7.2146 87.1467 6.88696 87.128Z" fill="#003849"/>
<path fill-rule="evenodd" clip-rule="evenodd" d="M7.38086 84.28C7.05322 84.2987 6.79712 84.5699 6.79712 84.898C6.79712 85.2262 7.05322 85.4973 7.38086 85.516C7.7085 85.4973 7.9646 85.2262 7.9646 84.898C7.9646 84.5699 7.7085 84.2987 7.38086 84.28Z" fill="#003849"/>
<path fill-rule="evenodd" clip-rule="evenodd" d="M36.8089 62.646C36.4812 62.6646 36.2251 62.9358 36.2251 63.264C36.2251 63.5922 36.4812 63.8633 36.8089 63.882C37.1365 63.8633 37.3926 63.5922 37.3926 63.264C37.3926 62.9358 37.1365 62.6647 36.8089 62.646Z" fill="#003849"/>
<path fill-rule="evenodd" clip-rule="evenodd" d="M0.481873 133.288C0.0949097 125.802 -0.730103 109.437 1.13287 101.974C4.63287 89.627 9.52588 97.159 11.2329 105.454C15.7469 91.462 21.1199 77.545 27.9429 96.685C30.3429 94.985 38.7539 82.03 42.8579 88.627C44.3579 91.357 36.8489 99.889 35.2329 102.521C40.3929 102.97 51.2449 103.744 44.0189 111.086C40.4059 114.757 32.5189 115.802 27.9899 118.007C33.4569 120.907 41.7569 125.101 31.8459 129.436C25.3239 132.679 7.64587 132.698 0.485901 133.287" fill="#003849"/>
<path fill-rule="evenodd" clip-rule="evenodd" d="M1.38892 134.179C11.606 123.371 21.6099 112.352 31.1649 100.951C33.8076 97.7983 36.4119 94.614 38.9779 91.398C39.4689 90.782 38.5989 89.898 38.1029 90.524C28.8389 102.147 19.0299 113.33 8.96094 124.259C6.16559 127.293 3.35028 130.308 0.514954 133.305C-0.0310669 133.883 0.841919 134.759 1.38995 134.179" fill="#5596A5"/>
<path fill-rule="evenodd" clip-rule="evenodd" d="M20.859 95.659C20.848 100.77 20.121 105.884 20.612 110.991C20.6239 111.327 20.8937 111.597 21.23 111.609C26.517 112.109 31.775 110.884 37.057 110.867C37.3846 110.848 37.6407 110.577 37.6407 110.249C37.6407 109.921 37.3846 109.65 37.057 109.631C31.775 109.648 26.517 110.876 21.23 110.373L21.848 110.991C21.357 105.884 22.084 100.769 22.095 95.659C22.0764 95.3314 21.8052 95.0752 21.477 95.0752C21.1488 95.0752 20.8777 95.3314 20.859 95.659Z" fill="#5596A5"/>
<path fill-rule="evenodd" clip-rule="evenodd" d="M7.00696 110.002C7.00696 115.316 6.68994 120.753 7.77094 125.993C7.84637 126.262 8.09174 126.448 8.37097 126.447C13.8649 126.208 19.39 126.692 24.8569 125.93C25.6409 125.821 25.3079 124.63 24.528 124.738C19.1799 125.483 13.7479 124.976 8.37097 125.21L8.97095 125.664C7.91394 120.54 8.24792 115.199 8.25092 110.002C8.2323 109.674 7.96112 109.418 7.63293 109.418C7.30475 109.418 7.03357 109.674 7.01495 110.002" fill="#5596A5"/>
<path fill-rule="evenodd" clip-rule="evenodd" d="M17.025 104.129C16.5245 104.146 16.1274 104.556 16.1274 105.057C16.1274 105.557 16.5245 105.968 17.0249 105.984C17.5253 105.968 17.9224 105.557 17.9224 105.057C17.9224 104.556 17.5253 104.146 17.025 104.129" fill="#5596A5"/>
<path fill-rule="evenodd" clip-rule="evenodd" d="M17.025 99.43C16.5245 99.4465 16.1274 99.8569 16.1274 100.358C16.1274 100.858 16.5245 101.269 17.0249 101.285C17.5253 101.269 17.9224 100.858 17.9224 100.358C17.9224 99.8569 17.5253 99.4465 17.025 99.43" fill="#5596A5"/>
<path fill-rule="evenodd" clip-rule="evenodd" d="M25.4329 100.172C24.9325 100.189 24.5354 100.599 24.5354 101.1C24.5354 101.6 24.9325 102.011 25.4329 102.027C25.9332 102.011 26.3304 101.6 26.3304 101.1C26.3304 100.599 25.9333 100.189 25.4329 100.172" fill="#5596A5"/>
<path fill-rule="evenodd" clip-rule="evenodd" d="M37.7979 105.365C37.2975 105.382 36.9004 105.792 36.9004 106.293C36.9004 106.793 37.2975 107.204 37.7979 107.22C38.2982 107.204 38.6954 106.793 38.6954 106.293C38.6954 105.792 38.2982 105.382 37.7979 105.365" fill="#5596A5"/>
<path fill-rule="evenodd" clip-rule="evenodd" d="M41.5068 106.849C41.0065 106.866 40.6094 107.276 40.6094 107.777C40.6094 108.277 41.0065 108.688 41.5068 108.704C42.0072 108.688 42.4044 108.277 42.4044 107.777C42.4044 107.276 42.0072 106.866 41.5068 106.849" fill="#5596A5"/>
<path fill-rule="evenodd" clip-rule="evenodd" d="M21.4759 118.472C20.9755 118.488 20.5784 118.899 20.5784 119.4C20.5784 119.9 20.9755 120.311 21.4758 120.327C21.9763 120.311 22.3734 119.9 22.3734 119.4C22.3734 118.899 21.9763 118.488 21.4759 118.472" fill="#5596A5"/>
<path fill-rule="evenodd" clip-rule="evenodd" d="M31.6147 123.418C31.1144 123.435 30.7173 123.845 30.7173 124.346C30.7173 124.846 31.1144 125.257 31.6147 125.273C32.1151 125.257 32.5123 124.846 32.5123 124.346C32.5123 123.845 32.1152 123.435 31.6148 123.418" fill="#5596A5"/>
<path fill-rule="evenodd" clip-rule="evenodd" d="M6.88574 101.903C6.38538 101.919 5.98828 102.33 5.98828 102.831C5.98828 103.331 6.38538 103.742 6.88574 103.758C7.38611 103.742 7.78326 103.331 7.78326 102.831C7.78326 102.33 7.38611 101.919 6.88574 101.903" fill="#5596A5"/>
<path fill-rule="evenodd" clip-rule="evenodd" d="M3.91895 119.708C3.41858 119.724 3.02148 120.135 3.02148 120.636C3.02148 121.136 3.41858 121.547 3.91895 121.563C4.41937 121.547 4.81647 121.136 4.81647 120.636C4.81647 120.135 4.41937 119.724 3.91895 119.708" fill="#5596A5"/>
<path fill-rule="evenodd" clip-rule="evenodd" d="M358.569 133.166C340.517 114.866 317.769 112.641 293.779 111.157C296.499 116.597 308.122 122.532 313.81 125.5C319.383 128.273 325.172 130.589 331.12 132.424C340.02 134.65 349.42 132.919 358.32 133.166" fill="#FFD066"/>
<path fill-rule="evenodd" clip-rule="evenodd" d="M357.926 132.808C350.485 130.052 343.061 127.236 335.519 124.764C328.259 122.385 320.85 120.589 313.513 118.479C309.425 117.352 305.417 115.955 301.513 114.299C301.08 114.11 300.701 114.749 301.139 114.939C308.015 117.946 315.317 119.766 322.545 121.701C330.187 123.748 337.692 126.187 345.132 128.873C349.343 130.394 353.532 131.968 357.732 133.523C358.18 133.689 358.373 132.972 357.932 132.807" fill="#003849"/>
<path fill-rule="evenodd" clip-rule="evenodd" d="M338.895 122.547C341.133 124.767 344.063 126.406 345.885 129.026L345.943 128.576C344.613 129.732 342.634 129.858 341.037 130.459C340.595 130.626 340.786 131.343 341.237 131.175C342.978 130.52 345.017 130.364 346.471 129.101C346.589 128.981 346.613 128.797 346.529 128.651C344.663 125.968 341.713 124.295 339.423 122.023C339.278 121.878 339.043 121.878 338.898 122.023C338.753 122.168 338.753 122.403 338.898 122.548" fill="#003849"/>
<path fill-rule="evenodd" clip-rule="evenodd" d="M329.44 118.887C330.975 121.039 332.989 122.815 334.386 125.069L334.608 124.523C331.497 125.288 328.237 125.387 325.208 126.501C324.764 126.665 324.956 127.382 325.408 127.217C328.434 126.102 331.694 126.003 334.808 125.239C334.918 125.207 335.008 125.126 335.051 125.02C335.095 124.913 335.087 124.793 335.03 124.693C333.63 122.437 331.619 120.664 330.084 118.511C329.809 118.126 329.165 118.496 329.443 118.886" fill="#003849"/>
<path fill-rule="evenodd" clip-rule="evenodd" d="M319.919 116.785C320.768 118.331 321.937 119.864 322.231 121.642L322.49 121.186C320.673 121.812 318.813 122.308 316.926 122.67C316.459 122.764 316.656 123.48 317.126 123.386C319.013 123.024 320.873 122.528 322.69 121.902C322.882 121.841 322.995 121.642 322.949 121.446C322.649 119.605 321.441 118.012 320.563 116.411C320.333 115.993 319.692 116.366 319.922 116.786" fill="#003849"/>
<path fill-rule="evenodd" clip-rule="evenodd" d="M310.484 115.46C310.908 116.512 311.28 117.585 311.597 118.675L311.768 118.256C310.752 118.686 309.707 119.045 308.641 119.331C308.19 119.48 308.383 120.197 308.841 120.047C309.966 119.74 311.069 119.356 312.141 118.897C312.284 118.811 312.354 118.641 312.311 118.479C311.995 117.389 311.623 116.316 311.198 115.264C311.047 114.813 310.329 115.007 310.483 115.464" fill="#003849"/>
<path fill-rule="evenodd" clip-rule="evenodd" d="M326.051 118.7C326.379 118.719 326.635 118.99 326.635 119.318C326.635 119.646 326.379 119.917 326.051 119.936C325.723 119.917 325.467 119.646 325.467 119.318C325.467 118.99 325.723 118.719 326.051 118.7Z" fill="#003849"/>
<path fill-rule="evenodd" clip-rule="evenodd" d="M324.443 116.969C324.771 116.988 325.027 117.259 325.027 117.587C325.027 117.915 324.771 118.186 324.443 118.205C324.115 118.186 323.859 117.915 323.859 117.587C323.859 117.259 324.115 116.988 324.443 116.969Z" fill="#003849"/>
<path fill-rule="evenodd" clip-rule="evenodd" d="M314.428 120.431C314.755 120.45 315.012 120.721 315.012 121.049C315.012 121.377 314.755 121.648 314.428 121.667C314.1 121.648 313.844 121.377 313.844 121.049C313.844 120.721 314.1 120.45 314.428 120.431Z" fill="#003849"/>
<path fill-rule="evenodd" clip-rule="evenodd" d="M312.697 121.42C313.025 121.439 313.281 121.71 313.281 122.038C313.281 122.366 313.025 122.637 312.697 122.656C312.369 122.637 312.113 122.366 312.113 122.038C312.113 121.71 312.369 121.439 312.697 121.42Z" fill="#003849"/>
<path fill-rule="evenodd" clip-rule="evenodd" d="M298.849 113.136C299.177 113.155 299.433 113.426 299.433 113.754C299.433 114.082 299.177 114.353 298.849 114.372C298.521 114.353 298.265 114.082 298.265 113.754C298.265 113.426 298.521 113.155 298.849 113.136Z" fill="#003849"/>
<path fill-rule="evenodd" clip-rule="evenodd" d="M373.551 113.216C374.293 99.616 373.551 86.261 365.143 74.886C357.971 65.486 345.607 57.823 334.479 54.361C334.726 66.726 340.661 82.552 348.579 91.949C352.541 96.5699 357.022 100.719 361.933 104.314C365.395 107.034 369.105 111.485 373.556 112.475" fill="#5596A5"/>
<path fill-rule="evenodd" clip-rule="evenodd" d="M372.92 110.893C369.691 103.401 365.779 96.2219 361.236 89.4459C359.074 86.153 356.777 82.96 354.536 79.725C352.381 76.62 350.376 73.413 348.236 70.295C345.998 66.8394 343.379 63.6463 340.428 60.776C340.078 60.453 339.552 60.976 339.903 61.3C345.346 66.322 349.033 72.956 353.154 79.026C355.3 82.186 357.56 85.265 359.681 88.442C361.902 91.77 364.038 95.156 366.021 98.631C368.331 102.655 370.395 106.816 372.203 111.089C372.385 111.523 373.103 111.333 372.918 110.889" fill="#003849"/>
<path fill-rule="evenodd" clip-rule="evenodd" d="M369.348 93.805C369.207 96.756 368.881 99.6951 368.372 102.605L368.73 102.332C367.176 102.384 365.626 102.142 364.162 101.619C362.658 101.155 361.19 100.584 359.768 99.91C359.339 99.71 358.961 100.347 359.394 100.55C360.872 101.254 362.4 101.85 363.964 102.334C365.492 102.877 367.109 103.128 368.73 103.074C368.896 103.071 369.041 102.961 369.088 102.801C369.609 99.825 369.943 96.819 370.088 93.801C370.11 93.324 369.368 93.325 369.346 93.801" fill="#003849"/>
<path fill-rule="evenodd" clip-rule="evenodd" d="M362.794 81.563C362.557 85.178 363.449 88.925 362.436 92.469L362.794 92.196C360.956 92.1989 359.129 91.9221 357.375 91.375C355.57 90.9142 353.837 90.2076 352.224 89.275C351.816 89.026 351.442 89.667 351.85 89.915C353.519 90.8784 355.311 91.6088 357.178 92.086C358.996 92.6512 360.89 92.9371 362.794 92.934C362.96 92.9305 363.104 92.8202 363.152 92.661C364.185 89.0451 363.293 85.2441 363.536 81.561C363.567 81.084 362.825 81.086 362.794 81.561" fill="#003849"/>
<path fill-rule="evenodd" clip-rule="evenodd" d="M356.365 73.898C356.365 75.063 356.457 76.229 356.479 77.398C356.577 78.8405 356.502 80.2894 356.255 81.714C356.18 82.045 356.121 82.381 355.806 82.49C355.33 82.6013 354.837 82.6199 354.354 82.545C352.854 82.4017 351.367 82.1467 349.905 81.782C348.623 81.493 347.353 81.158 346.078 80.838C345.884 80.792 345.688 80.9076 345.634 81.0999C345.58 81.2923 345.688 81.4927 345.878 81.554C348.602 82.3507 351.386 82.9263 354.202 83.275C355.086 83.35 356.348 83.475 356.777 82.509C357.198 81.177 357.352 79.7747 357.228 78.383C357.228 76.883 357.111 75.395 357.104 73.901C357.104 73.6961 356.938 73.53 356.733 73.53C356.528 73.53 356.362 73.6961 356.362 73.901" fill="#003849"/>
<path fill-rule="evenodd" clip-rule="evenodd" d="M349.564 65.366C349.571 66.424 349.708 67.482 349.756 68.539C349.924 69.7025 349.839 70.8885 349.507 72.0161C349.186 72.742 347.913 72.381 347.325 72.262C346.012 71.9733 344.722 71.5869 343.467 71.106C342.332 70.693 341.205 70.248 340.107 69.744C339.676 69.5441 339.299 70.185 339.733 70.384C342.077 71.5171 344.54 72.3835 347.077 72.967C347.877 73.134 349.258 73.467 349.908 72.759C350.635 71.971 350.538 70.446 350.526 69.459C350.51 68.09 350.316 66.728 350.307 65.359C350.307 65.1541 350.141 64.988 349.936 64.988C349.731 64.988 349.565 65.1541 349.565 65.359" fill="#003849"/>
<path fill-rule="evenodd" clip-rule="evenodd" d="M355.622 69.323C355.95 69.3416 356.206 69.6128 356.206 69.941C356.206 70.2692 355.95 70.5403 355.622 70.559C355.294 70.5403 355.038 70.2692 355.038 69.941C355.038 69.6128 355.294 69.3417 355.622 69.323Z" fill="#003849"/>
<path fill-rule="evenodd" clip-rule="evenodd" d="M353.891 67.464C354.219 67.4826 354.475 67.7538 354.475 68.082C354.475 68.4102 354.219 68.6813 353.891 68.7C353.563 68.6813 353.307 68.4102 353.307 68.082C353.307 67.7538 353.563 67.4827 353.891 67.464Z" fill="#003849"/>
<path fill-rule="evenodd" clip-rule="evenodd" d="M353.397 70.064C353.725 70.0827 353.981 70.3538 353.981 70.682C353.981 71.0102 353.725 71.2814 353.397 71.3C353.069 71.2813 352.813 71.0102 352.813 70.682C352.813 70.3538 353.069 70.0827 353.397 70.064Z" fill="#003849"/>
<path fill-rule="evenodd" clip-rule="evenodd" d="M345.731 76.989C346.058 77.0077 346.315 77.2788 346.315 77.607C346.315 77.9352 346.058 78.2064 345.731 78.225C345.403 78.2063 345.147 77.9352 345.147 77.607C345.147 77.2788 345.403 77.0077 345.731 76.989Z" fill="#003849"/>
<path fill-rule="evenodd" clip-rule="evenodd" d="M344 74.635C344.328 74.6537 344.584 74.9248 344.584 75.253C344.584 75.5812 344.328 75.8524 344 75.871C343.672 75.8523 343.416 75.5812 343.416 75.253C343.416 74.9248 343.672 74.6537 344 74.635Z" fill="#003849"/>
<path fill-rule="evenodd" clip-rule="evenodd" d="M343.134 77.236C343.462 77.2547 343.718 77.5258 343.718 77.854C343.718 78.1822 343.462 78.4534 343.134 78.472C342.806 78.4533 342.55 78.1822 342.55 77.854C342.55 77.5258 342.806 77.2547 343.134 77.236Z" fill="#003849"/>
<path fill-rule="evenodd" clip-rule="evenodd" d="M359.332 95.408C359.66 95.4267 359.916 95.6978 359.916 96.026C359.916 96.3542 359.66 96.6253 359.332 96.644C359.004 96.6253 358.748 96.3542 358.748 96.026C358.748 95.6978 359.004 95.4267 359.332 95.408Z" fill="#003849"/>
<path fill-rule="evenodd" clip-rule="evenodd" d="M356.735 94.666C357.062 94.6847 357.319 94.9558 357.319 95.284C357.319 95.6122 357.062 95.8833 356.735 95.902C356.407 95.8833 356.151 95.6122 356.151 95.284C356.151 94.9558 356.407 94.6847 356.735 94.666Z" fill="#003849"/>
<path fill-rule="evenodd" clip-rule="evenodd" d="M367.863 87.128C368.191 87.1467 368.447 87.4178 368.447 87.746C368.447 88.0742 368.191 88.3453 367.863 88.364C367.535 88.3453 367.279 88.0742 367.279 87.746C367.279 87.4178 367.535 87.1467 367.863 87.128Z" fill="#003849"/>
<path fill-rule="evenodd" clip-rule="evenodd" d="M367.369 84.28C367.697 84.2987 367.953 84.5699 367.953 84.898C367.953 85.2262 367.697 85.4973 367.369 85.516C367.041 85.4973 366.785 85.2262 366.785 84.898C366.785 84.5699 367.041 84.2987 367.369 84.28Z" fill="#003849"/>
<path fill-rule="evenodd" clip-rule="evenodd" d="M337.941 62.646C338.269 62.6646 338.525 62.9358 338.525 63.264C338.525 63.5922 338.269 63.8633 337.941 63.882C337.613 63.8633 337.357 63.5922 337.357 63.264C337.357 62.9358 337.613 62.6647 337.941 62.646Z" fill="#003849"/>
<path fill-rule="evenodd" clip-rule="evenodd" d="M374.268 133.288C374.656 125.802 375.481 109.437 373.617 101.974C370.117 89.627 365.224 97.159 363.517 105.454C359.004 91.462 353.629 77.545 346.807 96.685C344.407 94.985 335.996 82.03 331.891 88.627C330.397 91.357 337.9 99.889 339.517 102.521C334.356 102.97 323.505 103.744 330.731 111.086C334.344 114.757 342.231 115.802 346.761 118.007C341.295 120.907 332.994 125.101 342.905 129.436C349.427 132.679 367.105 132.698 374.265 133.287" fill="#003849"/>
<path fill-rule="evenodd" clip-rule="evenodd" d="M374.236 133.305C364.019 122.496 354.015 111.477 344.46 100.076C341.817 96.9233 339.213 93.739 336.648 90.523C336.148 89.901 335.282 90.781 335.773 91.397C345.038 103.02 354.847 114.202 364.915 125.132C367.711 128.166 370.526 131.181 373.361 134.178C373.909 134.757 374.782 133.878 374.236 133.304" fill="#5596A5"/>
<path fill-rule="evenodd" clip-rule="evenodd" d="M352.655 95.659C352.666 100.77 353.393 105.884 352.902 110.991L353.52 110.373C348.233 110.873 342.975 109.648 337.693 109.631C337.365 109.65 337.109 109.921 337.109 110.249C337.109 110.577 337.365 110.848 337.693 110.867C342.975 110.884 348.233 112.112 353.52 111.609C353.856 111.598 354.126 111.327 354.138 110.991C354.629 105.884 353.902 100.769 353.891 95.659C353.872 95.3313 353.601 95.075 353.273 95.075C352.944 95.075 352.673 95.3313 352.655 95.659Z" fill="#5596A5"/>
<path fill-rule="evenodd" clip-rule="evenodd" d="M366.503 110.002C366.503 115.202 366.84 120.541 365.783 125.664L366.383 125.21C361.006 124.976 355.575 125.483 350.227 124.738C349.448 124.629 349.112 125.821 349.898 125.93C355.365 126.692 360.89 126.208 366.383 126.447C366.662 126.448 366.907 126.262 366.983 125.993C368.064 120.753 367.75 115.316 367.747 110.002C367.728 109.674 367.457 109.418 367.129 109.418C366.801 109.418 366.529 109.674 366.511 110.002" fill="#5596A5"/>
<path fill-rule="evenodd" clip-rule="evenodd" d="M357.725 104.129C358.225 104.146 358.622 104.556 358.622 105.057C358.622 105.557 358.225 105.968 357.725 105.984C357.225 105.968 356.827 105.557 356.827 105.057C356.827 104.556 357.225 104.146 357.725 104.129" fill="#5596A5"/>
<path fill-rule="evenodd" clip-rule="evenodd" d="M357.725 99.43C358.225 99.4465 358.622 99.8569 358.622 100.358C358.622 100.858 358.225 101.269 357.725 101.285C357.225 101.269 356.827 100.858 356.827 100.358C356.827 99.8569 357.225 99.4465 357.725 99.43" fill="#5596A5"/>
<path fill-rule="evenodd" clip-rule="evenodd" d="M349.317 100.172C349.817 100.189 350.214 100.599 350.214 101.1C350.214 101.6 349.817 102.011 349.317 102.027C348.817 102.011 348.419 101.6 348.419 101.1C348.419 100.599 348.817 100.189 349.317 100.172" fill="#5596A5"/>
<path fill-rule="evenodd" clip-rule="evenodd" d="M336.952 105.365C337.452 105.382 337.849 105.792 337.849 106.293C337.849 106.793 337.452 107.204 336.952 107.22C336.452 107.204 336.054 106.793 336.054 106.293C336.054 105.792 336.452 105.382 336.952 105.365" fill="#5596A5"/>
<path fill-rule="evenodd" clip-rule="evenodd" d="M333.243 106.849C333.743 106.866 334.14 107.276 334.14 107.777C334.14 108.277 333.743 108.688 333.243 108.704C332.742 108.688 332.345 108.277 332.345 107.777C332.345 107.276 332.742 106.866 333.243 106.849" fill="#5596A5"/>
<path fill-rule="evenodd" clip-rule="evenodd" d="M353.274 118.472C353.774 118.488 354.171 118.899 354.171 119.4C354.171 119.9 353.774 120.311 353.274 120.327C352.773 120.311 352.376 119.9 352.376 119.4C352.376 118.899 352.773 118.488 353.274 118.472" fill="#5596A5"/>
<path fill-rule="evenodd" clip-rule="evenodd" d="M343.135 123.418C343.635 123.435 344.032 123.845 344.032 124.346C344.032 124.846 343.635 125.257 343.135 125.273C342.634 125.257 342.237 124.846 342.237 124.346C342.237 123.845 342.634 123.435 343.135 123.418" fill="#5596A5"/>
<path fill-rule="evenodd" clip-rule="evenodd" d="M367.864 101.903C368.364 101.919 368.761 102.33 368.761 102.831C368.761 103.331 368.364 103.742 367.864 103.758C367.363 103.742 366.966 103.331 366.966 102.831C366.966 102.33 367.363 101.919 367.864 101.903" fill="#5596A5"/>
<path fill-rule="evenodd" clip-rule="evenodd" d="M370.831 119.708C371.331 119.724 371.729 120.135 371.729 120.636C371.729 121.136 371.331 121.547 370.831 121.563C370.331 121.547 369.934 121.136 369.934 120.636C369.934 120.135 370.331 119.724 370.831 119.708" fill="#5596A5"/>
<path fill-rule="evenodd" clip-rule="evenodd" d="M160.702 134.237C160.331 128.797 159.466 123.851 161.197 118.537C161.692 117.177 162.928 112.478 165.03 113.468C166.514 114.086 166.266 118.043 166.761 119.279C168.987 116.806 168.987 112.479 171.707 110.253C175.416 107.038 174.18 112.853 174.307 114.953C176.78 113.84 180.613 106.298 183.951 107.411C187.042 108.524 179.376 115.695 178.511 117.179C179.995 117.426 181.602 116.437 183.211 116.561C185.56 116.685 186.426 118.168 184.2 119.652C181.851 121.012 175.792 120.888 174.8 123.852C176.284 124.594 182.837 122.986 182.466 126.201C182.095 128.55 176.16 128.921 174.429 129.416C169.607 130.652 165.529 132.631 161.075 134.609" fill="#4094A8"/>
<path fill-rule="evenodd" clip-rule="evenodd" d="M161.216 134.269C165.759 127.345 172.003 121.846 177.525 115.746C179.044 114.068 180.503 112.337 181.865 110.529C182.104 110.211 181.565 109.902 181.331 110.217C176.372 116.803 170.057 122.186 164.773 128.491C163.304 130.232 161.938 132.057 160.682 133.957C160.463 134.291 160.999 134.601 161.216 134.269" fill="#003849"/>
<path fill-rule="evenodd" clip-rule="evenodd" d="M170.914 114.123C170.218 116.939 169.923 119.839 170.038 122.737C170.04 122.833 170.085 122.923 170.161 122.982C170.238 123.04 170.337 123.061 170.43 123.037C174.243 122.229 177.769 120.477 181.43 119.204C181.803 119.074 181.642 118.477 181.265 118.604C177.6 119.877 174.073 121.629 170.265 122.437L170.656 122.737C170.541 119.895 170.829 117.05 171.511 114.288C171.588 113.9 170.992 113.733 170.911 114.124" fill="#003849"/>
<path fill-rule="evenodd" clip-rule="evenodd" d="M163.855 119.276C164.201 122.562 164.366 125.864 164.35 129.168C164.35 129.265 164.396 129.356 164.472 129.414C164.549 129.473 164.648 129.493 164.742 129.468C168.484 128.364 172.281 127.456 176.117 126.748C176.507 126.674 176.342 126.078 175.952 126.148C172.116 126.857 168.319 127.765 164.577 128.868L164.968 129.168C164.984 125.864 164.819 122.561 164.473 119.275C164.443 118.882 163.825 118.876 163.855 119.276Z" fill="#003849"/>
<path fill-rule="evenodd" clip-rule="evenodd" d="M140.731 98.23C155.419 104.689 164.383 122.769 161.498 135.695C143.712 130.73 141.03 113.588 140.731 98.23Z" fill="#003849"/>
<path fill-rule="evenodd" clip-rule="evenodd" d="M144.238 103.482C148.738 111.631 152.378 120.207 156.638 128.475C157.838 130.81 159.099 133.119 160.432 135.383C160.518 135.53 160.707 135.58 160.855 135.494C161.002 135.408 161.052 135.218 160.966 135.071C156.25 127.063 152.56 118.52 148.435 110.206C147.259 107.836 146.046 105.486 144.768 103.17C144.576 102.822 144.041 103.133 144.234 103.482" fill="#4094A8"/>
<path fill-rule="evenodd" clip-rule="evenodd" d="M144.299 110.918C145.978 111.569 147.606 112.344 149.171 113.236C149.254 113.283 149.354 113.29 149.443 113.254C149.532 113.218 149.599 113.143 149.626 113.051C150.026 111.113 149.757 109.113 150.007 107.158C150.058 106.765 149.439 106.768 149.389 107.158C149.146 109.058 149.42 111.007 149.029 112.887L149.483 112.702C147.871 111.786 146.193 110.99 144.464 110.322C144.089 110.186 143.927 110.784 144.299 110.922" fill="#4094A8"/>
<path fill-rule="evenodd" clip-rule="evenodd" d="M145.659 117.224C148.012 118.091 150.359 118.966 152.633 120.037C152.716 120.084 152.817 120.091 152.905 120.055C152.994 120.019 153.061 119.944 153.088 119.852C153.466 117.615 153.717 115.358 153.84 113.093C153.864 112.693 153.246 112.693 153.222 113.093C153.103 115.303 152.859 117.505 152.491 119.688L152.945 119.503C150.627 118.41 148.227 117.514 145.824 116.628C145.45 116.491 145.289 117.087 145.659 117.228" fill="#4094A8"/>
<path fill-rule="evenodd" clip-rule="evenodd" d="M149.121 124.766C151.48 125.756 153.893 126.603 156.292 127.486C156.456 127.527 156.624 127.432 156.673 127.27C157.392 125.333 157.852 123.31 158.043 121.253C158.096 120.86 157.477 120.864 157.425 121.253C157.235 123.255 156.781 125.223 156.076 127.106L156.457 126.89C154.057 126.007 151.644 125.159 149.286 124.17C148.92 124.016 148.76 124.614 149.121 124.77" fill="#4094A8"/>
<path fill-rule="evenodd" clip-rule="evenodd" d="M228.898 118.548C224.15 109.671 209.398 110.522 205.838 119.862C205.317 121.239 205.114 122.716 205.245 124.183C204.968 126.204 205.303 128.261 206.207 130.09C207.898 133.567 212.007 135.296 215.635 135.657C224.655 136.557 233.649 127.431 228.898 118.549" fill="#FFD066"/>
<path fill-rule="evenodd" clip-rule="evenodd" d="M216.766 125.395C217.613 125.428 218.842 125.305 219.072 124.295C219.135 123.456 218.763 122.644 218.086 122.145C217.372 121.457 216.39 121.121 215.404 121.228C214.225 121.54 213.314 122.476 213.032 123.662C212.496 124.936 212.672 126.397 213.495 127.507C214.361 128.428 215.55 128.978 216.813 129.042C219.848 129.355 222.963 127.753 223.556 124.561C224.295 120.578 220.718 117.261 217.146 116.415C213.882 115.645 210.468 116.704 208.999 119.894C207.489 123.173 208.269 127.433 210.041 130.462C210.927 132.076 212.443 133.25 214.227 133.705C216.25 134.094 218.336 134.004 220.318 133.443C222.263 133.004 224.033 131.995 225.401 130.543C226.432 129.329 227.099 127.85 227.327 126.274C227.827 123.154 227.005 119.49 224.502 117.386C223.908 116.889 223.234 116.497 222.509 116.225C222.137 116.083 221.976 116.681 222.344 116.825C227.999 118.979 228.274 128.058 223.613 131.325C222.054 132.354 220.271 132.992 218.413 133.186C216.616 133.535 214.756 133.343 213.068 132.635C211.653 131.819 210.566 130.535 209.994 129.004C209.288 127.398 208.893 125.673 208.83 123.92C208.772 121.102 209.993 118.093 212.84 117.113C216.174 116.147 219.757 117.353 221.828 120.138C222.891 121.501 223.261 123.281 222.828 124.954C222.422 126.328 221.414 127.444 220.087 127.985C218.187 128.759 215.037 128.807 213.777 126.858C212.719 125.221 213.754 121.499 216.118 121.838C216.909 121.978 217.616 122.416 218.094 123.061C218.419 123.495 218.738 124.208 218.153 124.568C217.72 124.768 217.24 124.842 216.767 124.78C216.367 124.764 216.367 125.38 216.767 125.398" fill="#003849"/>
<path fill-rule="evenodd" clip-rule="evenodd" d="M217.699 102.434V110.306C217.699 110.477 217.923 110.615 218.199 110.615C218.475 110.615 218.699 110.477 218.699 110.306V102.434C218.699 102.263 218.475 102.125 218.199 102.125C217.923 102.125 217.699 102.263 217.699 102.434Z" fill="#003849"/>
<path fill-rule="evenodd" clip-rule="evenodd" d="M208.262 109.423L210.192 111.357C210.313 111.478 210.509 111.477 210.629 111.357C210.75 111.236 210.75 111.04 210.629 110.919L208.696 108.985C208.575 108.864 208.379 108.865 208.258 108.986C208.138 109.106 208.138 109.302 208.259 109.423" fill="#003849"/>
<path fill-rule="evenodd" clip-rule="evenodd" d="M228.286 109.399L225.938 111.747C225.83 111.87 225.835 112.055 225.951 112.171C226.066 112.287 226.252 112.293 226.375 112.185L228.723 109.837C228.831 109.714 228.825 109.529 228.71 109.413C228.594 109.297 228.409 109.291 228.286 109.399Z" fill="#003849"/>
<path fill-rule="evenodd" clip-rule="evenodd" d="M198.179 118.754C199.845 119.31 201.554 119.725 203.289 119.997C203.678 120.057 203.846 119.462 203.454 119.397C201.719 119.125 200.01 118.71 198.344 118.154C197.965 118.028 197.803 118.625 198.179 118.754Z" fill="#003849"/>
<path fill-rule="evenodd" clip-rule="evenodd" d="M233.145 120.412C234.845 120.133 236.555 119.981 238.255 119.722C238.647 119.662 238.48 119.067 238.09 119.122C236.39 119.382 234.677 119.533 232.98 119.812C232.589 119.877 232.755 120.472 233.145 120.412Z" fill="#003849"/>
<path fill-rule="evenodd" clip-rule="evenodd" d="M233.338 128.079C234.078 128.079 234.809 128.258 235.548 128.262C235.718 128.261 235.856 128.078 235.856 127.853C235.856 127.628 235.718 127.445 235.548 127.445C234.809 127.445 234.078 127.265 233.338 127.262C233.227 127.261 233.125 127.339 233.069 127.466C233.014 127.593 233.014 127.749 233.069 127.876C233.125 128.002 233.227 128.08 233.338 128.079" fill="#003849"/>
<path fill-rule="evenodd" clip-rule="evenodd" d="M200.608 128.398C201.558 128.421 202.509 128.355 203.452 128.202C203.616 128.141 203.713 127.917 203.668 127.7C203.619 127.487 203.452 127.361 203.288 127.415C202.399 127.553 201.503 127.609 200.608 127.583C200.437 127.583 200.299 127.765 200.299 127.99C200.299 128.216 200.437 128.398 200.608 128.398" fill="#003849"/>
<path fill-rule="evenodd" clip-rule="evenodd" d="M54.0769 27.594C53.358 24.356 50.7529 17.49 46.6189 17.612C41.772 17.758 43.1709 26.862 43.4059 29.736C43.535 31.314 46.0059 31.327 45.879 29.736C45.847 29.336 45.7179 28.053 45.6409 26.546C45.9299 26.7404 46.2967 26.7779 46.6189 26.646C47.9769 26.162 49.384 25.908 50.7099 25.346C51.1308 26.2827 51.46 27.2579 51.6929 28.258C52.0389 29.814 54.423 29.158 54.0769 27.6M45.962 24.258C45.8244 24.3079 45.6963 24.3805 45.5829 24.473C45.5829 22.127 45.8389 19.933 46.8489 20.073C48.0379 20.238 48.993 21.913 49.626 23.133C48.457 23.647 47.1629 23.833 45.962 24.257" fill="#D67676"/>
<path fill-rule="evenodd" clip-rule="evenodd" d="M121.5 88.657C120.113 89.67 118.567 89.682 117.629 88.103C116.629 86.414 117.855 84.976 119.486 84.487C120.118 84.2842 120.477 83.6193 120.301 82.9795C120.125 82.3398 119.475 81.9527 118.829 82.1021C115.773 83.017 113.865 85.902 115.315 88.992C115.931 90.353 117.141 91.3541 118.593 91.7057C120.045 92.0573 121.578 91.7203 122.749 90.7921C124.024 89.863 122.792 87.715 121.501 88.657" fill="#4094A8"/>
<path fill-rule="evenodd" clip-rule="evenodd" d="M71.7929 67.769C71.3395 67.7847 70.98 68.1568 70.98 68.6105C70.98 69.0643 71.3395 69.4364 71.7929 69.452C72.2464 69.4364 72.6059 69.0643 72.6059 68.6105C72.6059 68.1568 72.2464 67.7847 71.7929 67.769Z" fill="#4094A8"/>
<path fill-rule="evenodd" clip-rule="evenodd" d="M73.304 65.245C72.8505 65.2606 72.491 65.6328 72.491 66.0865C72.491 66.5402 72.8505 66.9123 73.304 66.928C73.7574 66.9123 74.1169 66.5402 74.1169 66.0865C74.1169 65.6328 73.7574 65.2606 73.304 65.245Z" fill="#4094A8"/>
<path fill-rule="evenodd" clip-rule="evenodd" d="M74.4819 68.105C74.0284 68.1207 73.6689 68.4928 73.6689 68.9465C73.6689 69.4003 74.0284 69.7724 74.4819 69.788C74.9354 69.7724 75.2949 69.4003 75.2949 68.9465C75.2949 68.4928 74.9354 68.1207 74.4819 68.105Z" fill="#4094A8"/>
<path fill-rule="evenodd" clip-rule="evenodd" d="M313.907 99.27C313.453 99.2857 313.094 99.6578 313.094 100.112C313.094 100.565 313.453 100.937 313.907 100.953C314.36 100.937 314.72 100.565 314.72 100.112C314.72 99.6579 314.36 99.2858 313.907 99.27Z" fill="#4094A8"/>
<path fill-rule="evenodd" clip-rule="evenodd" d="M315.425 96.742C314.971 96.7577 314.612 97.1298 314.612 97.5835C314.612 98.0372 314.971 98.4094 315.425 98.425C315.878 98.4094 316.238 98.0372 316.238 97.5835C316.238 97.1298 315.878 96.7577 315.425 96.742" fill="#4094A8"/>
<path fill-rule="evenodd" clip-rule="evenodd" d="M316.6 99.602C316.147 99.6177 315.787 99.9898 315.787 100.444C315.787 100.897 316.147 101.269 316.6 101.285C317.053 101.269 317.413 100.897 317.413 100.444C317.413 99.9898 317.053 99.6177 316.6 99.602" fill="#4094A8"/>
<g opacity="0.3">
<mask id="mask2_0_2585" style="mask-type:luminance" maskUnits="userSpaceOnUse" x="172" y="57" width="49" height="26">
<rect x="172.572" y="57.126" width="48.029" height="25.043" fill="white"/>
</mask>
<g mask="url(#mask2_0_2585)">
<path fill-rule="evenodd" clip-rule="evenodd" d="M206.172 81.712C197.669 82.3532 189.129 82.3217 180.631 81.618C170.563 80.777 169.412 69.331 180.107 72.871C174.941 60.35 185.133 53.799 192.651 66.361C193.561 52.261 211.322 55.249 207.058 68.956C212.485 66.023 222.2 67.867 220.373 76.574C219.273 82.269 210.873 81.791 206.173 81.712" fill="#90CCD6"/>
</g>
</g>
</g>
</g>
</svg>
